M48
;DRILL file {KiCad 4.0.7} date 07/01/19 18:19:44
;FORMAT={2:4/ absolute / inch / suppress leading zeros}
FMAT,2
INCH,TZ
T1C0.016
T2C0.024
T3C0.031
T4C0.039
%
G90
G05
M72
T1
X39750Y-46750
X42250Y-50500
X42250Y-51500
X43500Y-44250
X47750Y-41500
X47750Y-54250
X48000Y-42500
X48000Y-49250
X48000Y-53750
X49250Y-39000
T2
X40250Y-47750
X40750Y-44963
X40750Y-45750
X40750Y-47250
X40750Y-48250
T3
X40250Y-41000
X40250Y-42969
X40250Y-49750
X40250Y-51719
X41500Y-41000
X41500Y-42969
X41500Y-49750
X41500Y-51719
X42750Y-41000
X42750Y-42000
X42750Y-43000
X42750Y-44000
X42750Y-45000
X42750Y-46000
X42750Y-47000
X42750Y-48000
X42750Y-49000
X42750Y-50000
X42750Y-51000
X42750Y-52000
X42750Y-53000
X42750Y-54000
X44250Y-44500
X44250Y-48500
X45750Y-44500
X45750Y-48500
X47250Y-44500
X47250Y-48500
X48750Y-41000
X48750Y-42000
X48750Y-43000
X48750Y-44000
X48750Y-45000
X48750Y-46000
X48750Y-47000
X48750Y-48000
X48750Y-49000
X48750Y-50000
X48750Y-51000
X48750Y-52000
X48750Y-53000
X48750Y-54000
X50000Y-41000
X50000Y-42000
X50000Y-43000
X50000Y-44000
X50000Y-45000
X50000Y-46000
X50000Y-47000
X50000Y-48000
X50000Y-49000
X50000Y-50000
X50000Y-51000
X50000Y-52000
X50000Y-53000
X50000Y-54000
X51250Y-41000
X51250Y-42000
X51250Y-43000
X51250Y-44000
X51250Y-45000
X51250Y-46000
X51250Y-47000
X51250Y-48000
X51250Y-49000
X51250Y-50000
X51250Y-51000
X51250Y-52000
X51250Y-53000
X51250Y-54000
X56000Y-41000
X56000Y-42000
X56000Y-43000
X56000Y-44000
X56000Y-45000
X56000Y-46000
X56000Y-47000
X56000Y-48000
X56000Y-49000
X56000Y-50000
X56000Y-51000
X56000Y-52000
X56000Y-53000
X56000Y-54000
X57250Y-41000
X57250Y-42000
X57250Y-43000
X57250Y-44000
X57250Y-45000
X57250Y-46000
X57250Y-47000
X57250Y-48000
X57250Y-49000
X57250Y-50000
X57250Y-51000
X57250Y-52000
X57250Y-53000
X57250Y-54000
T4
X40250Y-39500
X40250Y-53000
X40250Y-54000
X41250Y-39500
X41250Y-53000
X41250Y-54000
X42750Y-39500
X43750Y-39500
X46750Y-39500
X47750Y-39500
X48750Y-39500
X55250Y-39500
X56250Y-39500
X57250Y-39500
T0
M30
