G04 #@! TF.FileFunction,Legend,Bot*
%FSLAX46Y46*%
G04 Gerber Fmt 4.6, Leading zero omitted, Abs format (unit mm)*
G04 Created by KiCad (PCBNEW 4.0.7) date 07/01/19 18:19:42*
%MOMM*%
%LPD*%
G01*
G04 APERTURE LIST*
%ADD10C,0.100000*%
%ADD11C,0.400000*%
%ADD12C,0.200000*%
%ADD13C,0.150000*%
%ADD14C,0.300000*%
G04 APERTURE END LIST*
D10*
D11*
X108585000Y-99695000D02*
X108585000Y-97790000D01*
X102235000Y-99695000D02*
X102235000Y-97790000D01*
D12*
X142875000Y-101600000D02*
X142875000Y-100965000D01*
X140335000Y-101600000D02*
X142875000Y-101600000D01*
X140335000Y-100965000D02*
X140335000Y-101600000D01*
X104775000Y-133350000D02*
X104775000Y-133985000D01*
X102235000Y-133350000D02*
X104775000Y-133350000D01*
X102235000Y-133985000D02*
X102235000Y-133350000D01*
X104775000Y-138430000D02*
X104775000Y-137795000D01*
X102235000Y-138430000D02*
X104775000Y-138430000D01*
X102235000Y-137795000D02*
X102235000Y-138430000D01*
D13*
X140163571Y-129026189D02*
X140811190Y-129026189D01*
X140887381Y-128988094D01*
X140925476Y-128949999D01*
X140963571Y-128873808D01*
X140963571Y-128759523D01*
X140925476Y-128683332D01*
X140658810Y-129026189D02*
X140696905Y-128949999D01*
X140696905Y-128797618D01*
X140658810Y-128721427D01*
X140620714Y-128683332D01*
X140544524Y-128645237D01*
X140315952Y-128645237D01*
X140239762Y-128683332D01*
X140201667Y-128721427D01*
X140163571Y-128797618D01*
X140163571Y-128949999D01*
X140201667Y-129026189D01*
X140696905Y-129407142D02*
X140163571Y-129407142D01*
X139896905Y-129407142D02*
X139935000Y-129369047D01*
X139973095Y-129407142D01*
X139935000Y-129445237D01*
X139896905Y-129407142D01*
X139973095Y-129407142D01*
X140163571Y-129673808D02*
X140163571Y-129978570D01*
X139896905Y-129788094D02*
X140582619Y-129788094D01*
X140658810Y-129826189D01*
X140696905Y-129902380D01*
X140696905Y-129978570D01*
X140696905Y-130245237D02*
X139896905Y-130245237D01*
X140696905Y-130588094D02*
X140277857Y-130588094D01*
X140201667Y-130549999D01*
X140163571Y-130473809D01*
X140163571Y-130359523D01*
X140201667Y-130283332D01*
X140239762Y-130245237D01*
X140163571Y-131311904D02*
X140696905Y-131311904D01*
X140163571Y-130969047D02*
X140582619Y-130969047D01*
X140658810Y-131007142D01*
X140696905Y-131083333D01*
X140696905Y-131197619D01*
X140658810Y-131273809D01*
X140620714Y-131311904D01*
X140696905Y-131692857D02*
X139896905Y-131692857D01*
X140201667Y-131692857D02*
X140163571Y-131769048D01*
X140163571Y-131921429D01*
X140201667Y-131997619D01*
X140239762Y-132035714D01*
X140315952Y-132073810D01*
X140544524Y-132073810D01*
X140620714Y-132035714D01*
X140658810Y-131997619D01*
X140696905Y-131921429D01*
X140696905Y-131769048D01*
X140658810Y-131692857D01*
X140620714Y-132416667D02*
X140658810Y-132454762D01*
X140696905Y-132416667D01*
X140658810Y-132378572D01*
X140620714Y-132416667D01*
X140696905Y-132416667D01*
X140658810Y-133140476D02*
X140696905Y-133064286D01*
X140696905Y-132911905D01*
X140658810Y-132835714D01*
X140620714Y-132797619D01*
X140544524Y-132759524D01*
X140315952Y-132759524D01*
X140239762Y-132797619D01*
X140201667Y-132835714D01*
X140163571Y-132911905D01*
X140163571Y-133064286D01*
X140201667Y-133140476D01*
X140696905Y-133597619D02*
X140658810Y-133521428D01*
X140620714Y-133483333D01*
X140544524Y-133445238D01*
X140315952Y-133445238D01*
X140239762Y-133483333D01*
X140201667Y-133521428D01*
X140163571Y-133597619D01*
X140163571Y-133711905D01*
X140201667Y-133788095D01*
X140239762Y-133826190D01*
X140315952Y-133864286D01*
X140544524Y-133864286D01*
X140620714Y-133826190D01*
X140658810Y-133788095D01*
X140696905Y-133711905D01*
X140696905Y-133597619D01*
X140696905Y-134207143D02*
X140163571Y-134207143D01*
X140239762Y-134207143D02*
X140201667Y-134245238D01*
X140163571Y-134321429D01*
X140163571Y-134435715D01*
X140201667Y-134511905D01*
X140277857Y-134550000D01*
X140696905Y-134550000D01*
X140277857Y-134550000D02*
X140201667Y-134588096D01*
X140163571Y-134664286D01*
X140163571Y-134778572D01*
X140201667Y-134854762D01*
X140277857Y-134892857D01*
X140696905Y-134892857D01*
X139858810Y-135845239D02*
X140887381Y-135159524D01*
X140163571Y-135997619D02*
X140163571Y-136302381D01*
X139896905Y-136111905D02*
X140582619Y-136111905D01*
X140658810Y-136150000D01*
X140696905Y-136226191D01*
X140696905Y-136302381D01*
X140658810Y-136873810D02*
X140696905Y-136797620D01*
X140696905Y-136645239D01*
X140658810Y-136569048D01*
X140582619Y-136530953D01*
X140277857Y-136530953D01*
X140201667Y-136569048D01*
X140163571Y-136645239D01*
X140163571Y-136797620D01*
X140201667Y-136873810D01*
X140277857Y-136911905D01*
X140354048Y-136911905D01*
X140430238Y-136530953D01*
X140696905Y-137254762D02*
X139896905Y-137254762D01*
X140201667Y-137254762D02*
X140163571Y-137330953D01*
X140163571Y-137483334D01*
X140201667Y-137559524D01*
X140239762Y-137597619D01*
X140315952Y-137635715D01*
X140544524Y-137635715D01*
X140620714Y-137597619D01*
X140658810Y-137559524D01*
X140696905Y-137483334D01*
X140696905Y-137330953D01*
X140658810Y-137254762D01*
X140696905Y-138092858D02*
X140658810Y-138016667D01*
X140582619Y-137978572D01*
X139896905Y-137978572D01*
X137185476Y-106915000D02*
X137261667Y-106876905D01*
X137375952Y-106876905D01*
X137490238Y-106915000D01*
X137566429Y-106991190D01*
X137604524Y-107067381D01*
X137642619Y-107219762D01*
X137642619Y-107334048D01*
X137604524Y-107486429D01*
X137566429Y-107562619D01*
X137490238Y-107638810D01*
X137375952Y-107676905D01*
X137299762Y-107676905D01*
X137185476Y-107638810D01*
X137147381Y-107600714D01*
X137147381Y-107334048D01*
X137299762Y-107334048D01*
X136804524Y-107676905D02*
X136804524Y-107143571D01*
X136804524Y-107295952D02*
X136766429Y-107219762D01*
X136728333Y-107181667D01*
X136652143Y-107143571D01*
X136575952Y-107143571D01*
X136195000Y-107676905D02*
X136271191Y-107638810D01*
X136309286Y-107600714D01*
X136347381Y-107524524D01*
X136347381Y-107295952D01*
X136309286Y-107219762D01*
X136271191Y-107181667D01*
X136195000Y-107143571D01*
X136080714Y-107143571D01*
X136004524Y-107181667D01*
X135966429Y-107219762D01*
X135928333Y-107295952D01*
X135928333Y-107524524D01*
X135966429Y-107600714D01*
X136004524Y-107638810D01*
X136080714Y-107676905D01*
X136195000Y-107676905D01*
X135242619Y-107143571D02*
X135242619Y-107676905D01*
X135585476Y-107143571D02*
X135585476Y-107562619D01*
X135547381Y-107638810D01*
X135471190Y-107676905D01*
X135356904Y-107676905D01*
X135280714Y-107638810D01*
X135242619Y-107600714D01*
X134861666Y-107143571D02*
X134861666Y-107676905D01*
X134861666Y-107219762D02*
X134823571Y-107181667D01*
X134747380Y-107143571D01*
X134633094Y-107143571D01*
X134556904Y-107181667D01*
X134518809Y-107257857D01*
X134518809Y-107676905D01*
X133794999Y-107676905D02*
X133794999Y-106876905D01*
X133794999Y-107638810D02*
X133871189Y-107676905D01*
X134023570Y-107676905D01*
X134099761Y-107638810D01*
X134137856Y-107600714D01*
X134175951Y-107524524D01*
X134175951Y-107295952D01*
X134137856Y-107219762D01*
X134099761Y-107181667D01*
X134023570Y-107143571D01*
X133871189Y-107143571D01*
X133794999Y-107181667D01*
X137604524Y-105987857D02*
X137337857Y-105987857D01*
X137223571Y-106406905D02*
X137604524Y-106406905D01*
X137604524Y-105606905D01*
X137223571Y-105606905D01*
X136956904Y-105606905D02*
X136423571Y-106406905D01*
X136423571Y-105606905D02*
X136956904Y-106406905D01*
X136233095Y-105606905D02*
X135775952Y-105606905D01*
X136004523Y-106406905D02*
X136004523Y-105606905D01*
X135699761Y-106483095D02*
X135090237Y-106483095D01*
X134899761Y-106406905D02*
X134899761Y-105606905D01*
X134518809Y-106406905D02*
X134518809Y-105606905D01*
X134061666Y-106406905D01*
X134061666Y-105606905D01*
X137604524Y-105136905D02*
X137604524Y-104336905D01*
X137147381Y-105136905D01*
X137147381Y-104336905D01*
X136652143Y-105136905D02*
X136728334Y-105098810D01*
X136766429Y-105060714D01*
X136804524Y-104984524D01*
X136804524Y-104755952D01*
X136766429Y-104679762D01*
X136728334Y-104641667D01*
X136652143Y-104603571D01*
X136537857Y-104603571D01*
X136461667Y-104641667D01*
X136423572Y-104679762D01*
X136385476Y-104755952D01*
X136385476Y-104984524D01*
X136423572Y-105060714D01*
X136461667Y-105098810D01*
X136537857Y-105136905D01*
X136652143Y-105136905D01*
X136042619Y-104603571D02*
X136042619Y-105136905D01*
X136042619Y-104679762D02*
X136004524Y-104641667D01*
X135928333Y-104603571D01*
X135814047Y-104603571D01*
X135737857Y-104641667D01*
X135699762Y-104717857D01*
X135699762Y-105136905D01*
X135014047Y-105098810D02*
X135090237Y-105136905D01*
X135242618Y-105136905D01*
X135318809Y-105098810D01*
X135356904Y-105022619D01*
X135356904Y-104717857D01*
X135318809Y-104641667D01*
X135242618Y-104603571D01*
X135090237Y-104603571D01*
X135014047Y-104641667D01*
X134975952Y-104717857D01*
X134975952Y-104794048D01*
X135356904Y-104870238D01*
D12*
X104648000Y-107950000D02*
X104902000Y-107950000D01*
X103886000Y-107188000D02*
X104648000Y-107950000D01*
X103886000Y-102108000D02*
X103886000Y-107188000D01*
X103886000Y-102108000D02*
X104648000Y-102870000D01*
X103886000Y-102108000D02*
X103124000Y-102870000D01*
X113665000Y-107950000D02*
X104775000Y-107950000D01*
X114300000Y-108585000D02*
X113665000Y-107950000D01*
X116205000Y-101600000D02*
X114935000Y-100330000D01*
X120015000Y-101600000D02*
X116205000Y-101600000D01*
X120650000Y-102235000D02*
X120015000Y-101600000D01*
X136525000Y-101600000D02*
X136525000Y-102235000D01*
X135890000Y-100965000D02*
X136525000Y-101600000D01*
X135255000Y-100330000D02*
X135890000Y-100965000D01*
D13*
X117500476Y-110725000D02*
X117576667Y-110686905D01*
X117690952Y-110686905D01*
X117805238Y-110725000D01*
X117881429Y-110801190D01*
X117919524Y-110877381D01*
X117957619Y-111029762D01*
X117957619Y-111144048D01*
X117919524Y-111296429D01*
X117881429Y-111372619D01*
X117805238Y-111448810D01*
X117690952Y-111486905D01*
X117614762Y-111486905D01*
X117500476Y-111448810D01*
X117462381Y-111410714D01*
X117462381Y-111144048D01*
X117614762Y-111144048D01*
X117119524Y-111486905D02*
X117119524Y-110953571D01*
X117119524Y-111105952D02*
X117081429Y-111029762D01*
X117043333Y-110991667D01*
X116967143Y-110953571D01*
X116890952Y-110953571D01*
X116510000Y-111486905D02*
X116586191Y-111448810D01*
X116624286Y-111410714D01*
X116662381Y-111334524D01*
X116662381Y-111105952D01*
X116624286Y-111029762D01*
X116586191Y-110991667D01*
X116510000Y-110953571D01*
X116395714Y-110953571D01*
X116319524Y-110991667D01*
X116281429Y-111029762D01*
X116243333Y-111105952D01*
X116243333Y-111334524D01*
X116281429Y-111410714D01*
X116319524Y-111448810D01*
X116395714Y-111486905D01*
X116510000Y-111486905D01*
X115557619Y-110953571D02*
X115557619Y-111486905D01*
X115900476Y-110953571D02*
X115900476Y-111372619D01*
X115862381Y-111448810D01*
X115786190Y-111486905D01*
X115671904Y-111486905D01*
X115595714Y-111448810D01*
X115557619Y-111410714D01*
X115176666Y-110953571D02*
X115176666Y-111486905D01*
X115176666Y-111029762D02*
X115138571Y-110991667D01*
X115062380Y-110953571D01*
X114948094Y-110953571D01*
X114871904Y-110991667D01*
X114833809Y-111067857D01*
X114833809Y-111486905D01*
X114109999Y-111486905D02*
X114109999Y-110686905D01*
X114109999Y-111448810D02*
X114186189Y-111486905D01*
X114338570Y-111486905D01*
X114414761Y-111448810D01*
X114452856Y-111410714D01*
X114490951Y-111334524D01*
X114490951Y-111105952D01*
X114452856Y-111029762D01*
X114414761Y-110991667D01*
X114338570Y-110953571D01*
X114186189Y-110953571D01*
X114109999Y-110991667D01*
X117462381Y-110216905D02*
X117729048Y-109835952D01*
X117919524Y-110216905D02*
X117919524Y-109416905D01*
X117614762Y-109416905D01*
X117538571Y-109455000D01*
X117500476Y-109493095D01*
X117462381Y-109569286D01*
X117462381Y-109683571D01*
X117500476Y-109759762D01*
X117538571Y-109797857D01*
X117614762Y-109835952D01*
X117919524Y-109835952D01*
X117119524Y-110216905D02*
X117119524Y-109683571D01*
X117119524Y-109416905D02*
X117157619Y-109455000D01*
X117119524Y-109493095D01*
X117081429Y-109455000D01*
X117119524Y-109416905D01*
X117119524Y-109493095D01*
X116395715Y-109683571D02*
X116395715Y-110331190D01*
X116433810Y-110407381D01*
X116471905Y-110445476D01*
X116548096Y-110483571D01*
X116662381Y-110483571D01*
X116738572Y-110445476D01*
X116395715Y-110178810D02*
X116471905Y-110216905D01*
X116624286Y-110216905D01*
X116700477Y-110178810D01*
X116738572Y-110140714D01*
X116776667Y-110064524D01*
X116776667Y-109835952D01*
X116738572Y-109759762D01*
X116700477Y-109721667D01*
X116624286Y-109683571D01*
X116471905Y-109683571D01*
X116395715Y-109721667D01*
X116014762Y-110216905D02*
X116014762Y-109416905D01*
X115671905Y-110216905D02*
X115671905Y-109797857D01*
X115710000Y-109721667D01*
X115786190Y-109683571D01*
X115900476Y-109683571D01*
X115976667Y-109721667D01*
X116014762Y-109759762D01*
X115405238Y-109683571D02*
X115100476Y-109683571D01*
X115290952Y-109416905D02*
X115290952Y-110102619D01*
X115252857Y-110178810D01*
X115176666Y-110216905D01*
X115100476Y-110216905D01*
X113881428Y-110178810D02*
X113957618Y-110216905D01*
X114109999Y-110216905D01*
X114186190Y-110178810D01*
X114224285Y-110140714D01*
X114262380Y-110064524D01*
X114262380Y-109835952D01*
X114224285Y-109759762D01*
X114186190Y-109721667D01*
X114109999Y-109683571D01*
X113957618Y-109683571D01*
X113881428Y-109721667D01*
X113538571Y-110216905D02*
X113538571Y-109416905D01*
X113195714Y-110216905D02*
X113195714Y-109797857D01*
X113233809Y-109721667D01*
X113309999Y-109683571D01*
X113424285Y-109683571D01*
X113500476Y-109721667D01*
X113538571Y-109759762D01*
X112471904Y-110216905D02*
X112471904Y-109797857D01*
X112509999Y-109721667D01*
X112586189Y-109683571D01*
X112738570Y-109683571D01*
X112814761Y-109721667D01*
X112471904Y-110178810D02*
X112548094Y-110216905D01*
X112738570Y-110216905D01*
X112814761Y-110178810D01*
X112852856Y-110102619D01*
X112852856Y-110026429D01*
X112814761Y-109950238D01*
X112738570Y-109912143D01*
X112548094Y-109912143D01*
X112471904Y-109874048D01*
X112090951Y-109683571D02*
X112090951Y-110216905D01*
X112090951Y-109759762D02*
X112052856Y-109721667D01*
X111976665Y-109683571D01*
X111862379Y-109683571D01*
X111786189Y-109721667D01*
X111748094Y-109797857D01*
X111748094Y-110216905D01*
X111367141Y-109683571D02*
X111367141Y-110216905D01*
X111367141Y-109759762D02*
X111329046Y-109721667D01*
X111252855Y-109683571D01*
X111138569Y-109683571D01*
X111062379Y-109721667D01*
X111024284Y-109797857D01*
X111024284Y-110216905D01*
X110338569Y-110178810D02*
X110414759Y-110216905D01*
X110567140Y-110216905D01*
X110643331Y-110178810D01*
X110681426Y-110102619D01*
X110681426Y-109797857D01*
X110643331Y-109721667D01*
X110567140Y-109683571D01*
X110414759Y-109683571D01*
X110338569Y-109721667D01*
X110300474Y-109797857D01*
X110300474Y-109874048D01*
X110681426Y-109950238D01*
X109843331Y-110216905D02*
X109919522Y-110178810D01*
X109957617Y-110102619D01*
X109957617Y-109416905D01*
X121132619Y-108638333D02*
X120751667Y-108638333D01*
X121208810Y-108866905D02*
X120942143Y-108066905D01*
X120675476Y-108866905D01*
X120408810Y-108066905D02*
X120408810Y-108714524D01*
X120370715Y-108790714D01*
X120332619Y-108828810D01*
X120256429Y-108866905D01*
X120104048Y-108866905D01*
X120027857Y-108828810D01*
X119989762Y-108790714D01*
X119951667Y-108714524D01*
X119951667Y-108066905D01*
X119570715Y-108866905D02*
X119570715Y-108066905D01*
X119380239Y-108066905D01*
X119265953Y-108105000D01*
X119189762Y-108181190D01*
X119151667Y-108257381D01*
X119113572Y-108409762D01*
X119113572Y-108524048D01*
X119151667Y-108676429D01*
X119189762Y-108752619D01*
X119265953Y-108828810D01*
X119380239Y-108866905D01*
X119570715Y-108866905D01*
X118961191Y-108943095D02*
X118351667Y-108943095D01*
X118008810Y-108066905D02*
X117856429Y-108066905D01*
X117780238Y-108105000D01*
X117704048Y-108181190D01*
X117665953Y-108333571D01*
X117665953Y-108600238D01*
X117704048Y-108752619D01*
X117780238Y-108828810D01*
X117856429Y-108866905D01*
X118008810Y-108866905D01*
X118085000Y-108828810D01*
X118161191Y-108752619D01*
X118199286Y-108600238D01*
X118199286Y-108333571D01*
X118161191Y-108181190D01*
X118085000Y-108105000D01*
X118008810Y-108066905D01*
X117323096Y-108066905D02*
X117323096Y-108714524D01*
X117285001Y-108790714D01*
X117246905Y-108828810D01*
X117170715Y-108866905D01*
X117018334Y-108866905D01*
X116942143Y-108828810D01*
X116904048Y-108790714D01*
X116865953Y-108714524D01*
X116865953Y-108066905D01*
X116599287Y-108066905D02*
X116142144Y-108066905D01*
X116370715Y-108866905D02*
X116370715Y-108066905D01*
X115913572Y-108143095D02*
X115875477Y-108105000D01*
X115799286Y-108066905D01*
X115608810Y-108066905D01*
X115532620Y-108105000D01*
X115494524Y-108143095D01*
X115456429Y-108219286D01*
X115456429Y-108295476D01*
X115494524Y-108409762D01*
X115951667Y-108866905D01*
X115456429Y-108866905D01*
X120675476Y-110216905D02*
X121132619Y-110216905D01*
X120904048Y-110216905D02*
X120904048Y-109416905D01*
X120980238Y-109531190D01*
X121056429Y-109607381D01*
X121132619Y-109645476D01*
X120332619Y-109912143D02*
X119723095Y-109912143D01*
X121132619Y-110843095D02*
X121094524Y-110805000D01*
X121018333Y-110766905D01*
X120827857Y-110766905D01*
X120751667Y-110805000D01*
X120713571Y-110843095D01*
X120675476Y-110919286D01*
X120675476Y-110995476D01*
X120713571Y-111109762D01*
X121170714Y-111566905D01*
X120675476Y-111566905D01*
X120332619Y-111262143D02*
X119723095Y-111262143D01*
D12*
X113030000Y-100330000D02*
X114935000Y-100330000D01*
X113030000Y-100330000D02*
X113665000Y-100965000D01*
X113030000Y-100330000D02*
X113665000Y-99695000D01*
D13*
X117919524Y-106406905D02*
X117919524Y-105606905D01*
X117729048Y-105606905D01*
X117614762Y-105645000D01*
X117538571Y-105721190D01*
X117500476Y-105797381D01*
X117462381Y-105949762D01*
X117462381Y-106064048D01*
X117500476Y-106216429D01*
X117538571Y-106292619D01*
X117614762Y-106368810D01*
X117729048Y-106406905D01*
X117919524Y-106406905D01*
X117119524Y-106406905D02*
X117119524Y-105873571D01*
X117119524Y-105606905D02*
X117157619Y-105645000D01*
X117119524Y-105683095D01*
X117081429Y-105645000D01*
X117119524Y-105606905D01*
X117119524Y-105683095D01*
X116776667Y-106368810D02*
X116700477Y-106406905D01*
X116548096Y-106406905D01*
X116471905Y-106368810D01*
X116433810Y-106292619D01*
X116433810Y-106254524D01*
X116471905Y-106178333D01*
X116548096Y-106140238D01*
X116662381Y-106140238D01*
X116738572Y-106102143D01*
X116776667Y-106025952D01*
X116776667Y-105987857D01*
X116738572Y-105911667D01*
X116662381Y-105873571D01*
X116548096Y-105873571D01*
X116471905Y-105911667D01*
X116090953Y-106330714D02*
X116052858Y-106368810D01*
X116090953Y-106406905D01*
X116129048Y-106368810D01*
X116090953Y-106330714D01*
X116090953Y-106406905D01*
X115138572Y-106368810D02*
X115024286Y-106406905D01*
X114833810Y-106406905D01*
X114757620Y-106368810D01*
X114719524Y-106330714D01*
X114681429Y-106254524D01*
X114681429Y-106178333D01*
X114719524Y-106102143D01*
X114757620Y-106064048D01*
X114833810Y-106025952D01*
X114986191Y-105987857D01*
X115062382Y-105949762D01*
X115100477Y-105911667D01*
X115138572Y-105835476D01*
X115138572Y-105759286D01*
X115100477Y-105683095D01*
X115062382Y-105645000D01*
X114986191Y-105606905D01*
X114795715Y-105606905D01*
X114681429Y-105645000D01*
X114338572Y-106406905D02*
X114338572Y-105606905D01*
X113957620Y-106406905D02*
X113957620Y-105606905D01*
X113767144Y-105606905D01*
X113652858Y-105645000D01*
X113576667Y-105721190D01*
X113538572Y-105797381D01*
X113500477Y-105949762D01*
X113500477Y-106064048D01*
X113538572Y-106216429D01*
X113576667Y-106292619D01*
X113652858Y-106368810D01*
X113767144Y-106406905D01*
X113957620Y-106406905D01*
X112586191Y-105873571D02*
X112014762Y-105873571D01*
X112357620Y-105530714D02*
X112586191Y-106559286D01*
X112090953Y-106216429D02*
X112662382Y-106216429D01*
X112319524Y-106559286D02*
X112090953Y-105530714D01*
X111786191Y-105683095D02*
X111748096Y-105645000D01*
X111671905Y-105606905D01*
X111481429Y-105606905D01*
X111405239Y-105645000D01*
X111367143Y-105683095D01*
X111329048Y-105759286D01*
X111329048Y-105835476D01*
X111367143Y-105949762D01*
X111824286Y-106406905D01*
X111329048Y-106406905D01*
X117995714Y-104336905D02*
X117805238Y-105136905D01*
X117652857Y-104565476D01*
X117500476Y-105136905D01*
X117310000Y-104336905D01*
X117005238Y-105136905D02*
X117005238Y-104603571D01*
X117005238Y-104336905D02*
X117043333Y-104375000D01*
X117005238Y-104413095D01*
X116967143Y-104375000D01*
X117005238Y-104336905D01*
X117005238Y-104413095D01*
X116624286Y-105136905D02*
X116624286Y-104603571D01*
X116624286Y-104755952D02*
X116586191Y-104679762D01*
X116548095Y-104641667D01*
X116471905Y-104603571D01*
X116395714Y-104603571D01*
X115824286Y-105098810D02*
X115900476Y-105136905D01*
X116052857Y-105136905D01*
X116129048Y-105098810D01*
X116167143Y-105022619D01*
X116167143Y-104717857D01*
X116129048Y-104641667D01*
X116052857Y-104603571D01*
X115900476Y-104603571D01*
X115824286Y-104641667D01*
X115786191Y-104717857D01*
X115786191Y-104794048D01*
X116167143Y-104870238D01*
X114948096Y-104603571D02*
X114643334Y-104603571D01*
X114833810Y-104336905D02*
X114833810Y-105022619D01*
X114795715Y-105098810D01*
X114719524Y-105136905D01*
X114643334Y-105136905D01*
X114262381Y-105136905D02*
X114338572Y-105098810D01*
X114376667Y-105060714D01*
X114414762Y-104984524D01*
X114414762Y-104755952D01*
X114376667Y-104679762D01*
X114338572Y-104641667D01*
X114262381Y-104603571D01*
X114148095Y-104603571D01*
X114071905Y-104641667D01*
X114033810Y-104679762D01*
X113995714Y-104755952D01*
X113995714Y-104984524D01*
X114033810Y-105060714D01*
X114071905Y-105098810D01*
X114148095Y-105136905D01*
X114262381Y-105136905D01*
X113043333Y-105136905D02*
X113043333Y-104336905D01*
X112776666Y-104908333D01*
X112509999Y-104336905D01*
X112509999Y-105136905D01*
X111862380Y-104717857D02*
X111748094Y-104755952D01*
X111709999Y-104794048D01*
X111671904Y-104870238D01*
X111671904Y-104984524D01*
X111709999Y-105060714D01*
X111748094Y-105098810D01*
X111824285Y-105136905D01*
X112129047Y-105136905D01*
X112129047Y-104336905D01*
X111862380Y-104336905D01*
X111786190Y-104375000D01*
X111748094Y-104413095D01*
X111709999Y-104489286D01*
X111709999Y-104565476D01*
X111748094Y-104641667D01*
X111786190Y-104679762D01*
X111862380Y-104717857D01*
X112129047Y-104717857D01*
X120637381Y-103710714D02*
X120675476Y-103748810D01*
X120789762Y-103786905D01*
X120865952Y-103786905D01*
X120980238Y-103748810D01*
X121056429Y-103672619D01*
X121094524Y-103596429D01*
X121132619Y-103444048D01*
X121132619Y-103329762D01*
X121094524Y-103177381D01*
X121056429Y-103101190D01*
X120980238Y-103025000D01*
X120865952Y-102986905D01*
X120789762Y-102986905D01*
X120675476Y-103025000D01*
X120637381Y-103063095D01*
X120332619Y-103748810D02*
X120218333Y-103786905D01*
X120027857Y-103786905D01*
X119951667Y-103748810D01*
X119913571Y-103710714D01*
X119875476Y-103634524D01*
X119875476Y-103558333D01*
X119913571Y-103482143D01*
X119951667Y-103444048D01*
X120027857Y-103405952D01*
X120180238Y-103367857D01*
X120256429Y-103329762D01*
X120294524Y-103291667D01*
X120332619Y-103215476D01*
X120332619Y-103139286D01*
X120294524Y-103063095D01*
X120256429Y-103025000D01*
X120180238Y-102986905D01*
X119989762Y-102986905D01*
X119875476Y-103025000D01*
X121285000Y-102849000D02*
X119723095Y-102849000D01*
X120675476Y-105136905D02*
X121132619Y-105136905D01*
X120904048Y-105136905D02*
X120904048Y-104336905D01*
X120980238Y-104451190D01*
X121056429Y-104527381D01*
X121132619Y-104565476D01*
X120332619Y-104832143D02*
X119723095Y-104832143D01*
X120675476Y-106486905D02*
X121132619Y-106486905D01*
X120904048Y-106486905D02*
X120904048Y-105686905D01*
X120980238Y-105801190D01*
X121056429Y-105877381D01*
X121132619Y-105915476D01*
X120332619Y-106182143D02*
X119723095Y-106182143D01*
X119380238Y-105763095D02*
X119342143Y-105725000D01*
X119265952Y-105686905D01*
X119075476Y-105686905D01*
X118999286Y-105725000D01*
X118961190Y-105763095D01*
X118923095Y-105839286D01*
X118923095Y-105915476D01*
X118961190Y-106029762D01*
X119418333Y-106486905D01*
X118923095Y-106486905D01*
D12*
X136525000Y-100330000D02*
X137160000Y-100330000D01*
X136525000Y-100330000D02*
X135890000Y-100965000D01*
X137795000Y-100330000D02*
X137160000Y-100330000D01*
X125730000Y-100330000D02*
X135255000Y-100330000D01*
X125730000Y-100330000D02*
X126365000Y-100965000D01*
X125730000Y-100330000D02*
X126365000Y-99695000D01*
X138430000Y-100330000D02*
X137795000Y-100965000D01*
X137795000Y-99695000D02*
X138430000Y-100330000D01*
X138430000Y-100330000D02*
X137795000Y-100330000D01*
D13*
X140779524Y-103327857D02*
X140512857Y-103327857D01*
X140398571Y-103746905D02*
X140779524Y-103746905D01*
X140779524Y-102946905D01*
X140398571Y-102946905D01*
X140131904Y-102946905D02*
X139598571Y-103746905D01*
X139598571Y-102946905D02*
X140131904Y-103746905D01*
X139408095Y-102946905D02*
X138950952Y-102946905D01*
X139179523Y-103746905D02*
X139179523Y-102946905D01*
X138874761Y-103823095D02*
X138265237Y-103823095D01*
X138074761Y-103746905D02*
X138074761Y-102946905D01*
X137693809Y-103746905D02*
X137693809Y-102946905D01*
X137236666Y-103746905D01*
X137236666Y-102946905D01*
X137046190Y-103823095D02*
X136436666Y-103823095D01*
X136284285Y-103708810D02*
X136169999Y-103746905D01*
X135979523Y-103746905D01*
X135903333Y-103708810D01*
X135865237Y-103670714D01*
X135827142Y-103594524D01*
X135827142Y-103518333D01*
X135865237Y-103442143D01*
X135903333Y-103404048D01*
X135979523Y-103365952D01*
X136131904Y-103327857D01*
X136208095Y-103289762D01*
X136246190Y-103251667D01*
X136284285Y-103175476D01*
X136284285Y-103099286D01*
X136246190Y-103023095D01*
X136208095Y-102985000D01*
X136131904Y-102946905D01*
X135941428Y-102946905D01*
X135827142Y-102985000D01*
X135484285Y-103327857D02*
X135217618Y-103327857D01*
X135103332Y-103746905D02*
X135484285Y-103746905D01*
X135484285Y-102946905D01*
X135103332Y-102946905D01*
X134379522Y-103746905D02*
X134760475Y-103746905D01*
X134760475Y-102946905D01*
X133693808Y-103746905D02*
X134150951Y-103746905D01*
X133922380Y-103746905D02*
X133922380Y-102946905D01*
X133998570Y-103061190D01*
X134074761Y-103137381D01*
X134150951Y-103175476D01*
X132779522Y-102908810D02*
X133465237Y-103937381D01*
X132550951Y-103023095D02*
X132512856Y-102985000D01*
X132436665Y-102946905D01*
X132246189Y-102946905D01*
X132169999Y-102985000D01*
X132131903Y-103023095D01*
X132093808Y-103099286D01*
X132093808Y-103175476D01*
X132131903Y-103289762D01*
X132589046Y-103746905D01*
X132093808Y-103746905D01*
X140170000Y-105096905D02*
X140170000Y-104296905D01*
X139712857Y-105096905D01*
X139712857Y-104296905D01*
X138874762Y-105020714D02*
X138912857Y-105058810D01*
X139027143Y-105096905D01*
X139103333Y-105096905D01*
X139217619Y-105058810D01*
X139293810Y-104982619D01*
X139331905Y-104906429D01*
X139370000Y-104754048D01*
X139370000Y-104639762D01*
X139331905Y-104487381D01*
X139293810Y-104411190D01*
X139217619Y-104335000D01*
X139103333Y-104296905D01*
X139027143Y-104296905D01*
X138912857Y-104335000D01*
X138874762Y-104373095D01*
X140360476Y-106446905D02*
X140817619Y-106446905D01*
X140589048Y-106446905D02*
X140589048Y-105646905D01*
X140665238Y-105761190D01*
X140741429Y-105837381D01*
X140817619Y-105875476D01*
X140017619Y-106142143D02*
X139408095Y-106142143D01*
X139065238Y-105723095D02*
X139027143Y-105685000D01*
X138950952Y-105646905D01*
X138760476Y-105646905D01*
X138684286Y-105685000D01*
X138646190Y-105723095D01*
X138608095Y-105799286D01*
X138608095Y-105875476D01*
X138646190Y-105989762D01*
X139103333Y-106446905D01*
X138608095Y-106446905D01*
X140817619Y-107073095D02*
X140779524Y-107035000D01*
X140703333Y-106996905D01*
X140512857Y-106996905D01*
X140436667Y-107035000D01*
X140398571Y-107073095D01*
X140360476Y-107149286D01*
X140360476Y-107225476D01*
X140398571Y-107339762D01*
X140855714Y-107796905D01*
X140360476Y-107796905D01*
X140017619Y-107492143D02*
X139408095Y-107492143D01*
X139103333Y-106996905D02*
X138608095Y-106996905D01*
X138874762Y-107301667D01*
X138760476Y-107301667D01*
X138684286Y-107339762D01*
X138646190Y-107377857D01*
X138608095Y-107454048D01*
X138608095Y-107644524D01*
X138646190Y-107720714D01*
X138684286Y-107758810D01*
X138760476Y-107796905D01*
X138989048Y-107796905D01*
X139065238Y-107758810D01*
X139103333Y-107720714D01*
X119536905Y-125628333D02*
X119536905Y-125475952D01*
X119575000Y-125399762D01*
X119613095Y-125361667D01*
X119727381Y-125285476D01*
X119879762Y-125247381D01*
X120184524Y-125247381D01*
X120260714Y-125285476D01*
X120298810Y-125323571D01*
X120336905Y-125399762D01*
X120336905Y-125552143D01*
X120298810Y-125628333D01*
X120260714Y-125666429D01*
X120184524Y-125704524D01*
X119994048Y-125704524D01*
X119917857Y-125666429D01*
X119879762Y-125628333D01*
X119841667Y-125552143D01*
X119841667Y-125399762D01*
X119879762Y-125323571D01*
X119917857Y-125285476D01*
X119994048Y-125247381D01*
X119536905Y-126428334D02*
X119536905Y-126047381D01*
X119917857Y-126009286D01*
X119879762Y-126047381D01*
X119841667Y-126123572D01*
X119841667Y-126314048D01*
X119879762Y-126390238D01*
X119917857Y-126428334D01*
X119994048Y-126466429D01*
X120184524Y-126466429D01*
X120260714Y-126428334D01*
X120298810Y-126390238D01*
X120336905Y-126314048D01*
X120336905Y-126123572D01*
X120298810Y-126047381D01*
X120260714Y-126009286D01*
X119879762Y-126923572D02*
X119841667Y-126847381D01*
X119803571Y-126809286D01*
X119727381Y-126771191D01*
X119689286Y-126771191D01*
X119613095Y-126809286D01*
X119575000Y-126847381D01*
X119536905Y-126923572D01*
X119536905Y-127075953D01*
X119575000Y-127152143D01*
X119613095Y-127190239D01*
X119689286Y-127228334D01*
X119727381Y-127228334D01*
X119803571Y-127190239D01*
X119841667Y-127152143D01*
X119879762Y-127075953D01*
X119879762Y-126923572D01*
X119917857Y-126847381D01*
X119955952Y-126809286D01*
X120032143Y-126771191D01*
X120184524Y-126771191D01*
X120260714Y-126809286D01*
X120298810Y-126847381D01*
X120336905Y-126923572D01*
X120336905Y-127075953D01*
X120298810Y-127152143D01*
X120260714Y-127190239D01*
X120184524Y-127228334D01*
X120032143Y-127228334D01*
X119955952Y-127190239D01*
X119917857Y-127152143D01*
X119879762Y-127075953D01*
X120336905Y-127990239D02*
X120336905Y-127533096D01*
X120336905Y-127761667D02*
X119536905Y-127761667D01*
X119651190Y-127685477D01*
X119727381Y-127609286D01*
X119765476Y-127533096D01*
X120260714Y-129399763D02*
X120298810Y-129361668D01*
X120336905Y-129247382D01*
X120336905Y-129171192D01*
X120298810Y-129056906D01*
X120222619Y-128980715D01*
X120146429Y-128942620D01*
X119994048Y-128904525D01*
X119879762Y-128904525D01*
X119727381Y-128942620D01*
X119651190Y-128980715D01*
X119575000Y-129056906D01*
X119536905Y-129171192D01*
X119536905Y-129247382D01*
X119575000Y-129361668D01*
X119613095Y-129399763D01*
X119536905Y-129666430D02*
X119536905Y-130199763D01*
X120336905Y-129856906D01*
X119536905Y-130656906D02*
X119536905Y-130733097D01*
X119575000Y-130809287D01*
X119613095Y-130847382D01*
X119689286Y-130885478D01*
X119841667Y-130923573D01*
X120032143Y-130923573D01*
X120184524Y-130885478D01*
X120260714Y-130847382D01*
X120298810Y-130809287D01*
X120336905Y-130733097D01*
X120336905Y-130656906D01*
X120298810Y-130580716D01*
X120260714Y-130542620D01*
X120184524Y-130504525D01*
X120032143Y-130466430D01*
X119841667Y-130466430D01*
X119689286Y-130504525D01*
X119613095Y-130542620D01*
X119575000Y-130580716D01*
X119536905Y-130656906D01*
X119498810Y-131837859D02*
X120527381Y-131152144D01*
X120260714Y-132561668D02*
X120298810Y-132523573D01*
X120336905Y-132409287D01*
X120336905Y-132333097D01*
X120298810Y-132218811D01*
X120222619Y-132142620D01*
X120146429Y-132104525D01*
X119994048Y-132066430D01*
X119879762Y-132066430D01*
X119727381Y-132104525D01*
X119651190Y-132142620D01*
X119575000Y-132218811D01*
X119536905Y-132333097D01*
X119536905Y-132409287D01*
X119575000Y-132523573D01*
X119613095Y-132561668D01*
X119536905Y-132828335D02*
X119536905Y-133361668D01*
X120336905Y-133018811D01*
X120336905Y-134085478D02*
X120336905Y-133628335D01*
X120336905Y-133856906D02*
X119536905Y-133856906D01*
X119651190Y-133780716D01*
X119727381Y-133704525D01*
X119765476Y-133628335D01*
X120260714Y-134428335D02*
X120298810Y-134466430D01*
X120336905Y-134428335D01*
X120298810Y-134390240D01*
X120260714Y-134428335D01*
X120336905Y-134428335D01*
X119841667Y-134428335D02*
X119879762Y-134466430D01*
X119917857Y-134428335D01*
X119879762Y-134390240D01*
X119841667Y-134428335D01*
X119917857Y-134428335D01*
X119803571Y-135761668D02*
X120336905Y-135761668D01*
X119498810Y-135571192D02*
X120070238Y-135380716D01*
X120070238Y-135875954D01*
X119536905Y-136104526D02*
X119536905Y-136637859D01*
X120336905Y-136295002D01*
X119536905Y-137095002D02*
X119536905Y-137171193D01*
X119575000Y-137247383D01*
X119613095Y-137285478D01*
X119689286Y-137323574D01*
X119841667Y-137361669D01*
X120032143Y-137361669D01*
X120184524Y-137323574D01*
X120260714Y-137285478D01*
X120298810Y-137247383D01*
X120336905Y-137171193D01*
X120336905Y-137095002D01*
X120298810Y-137018812D01*
X120260714Y-136980716D01*
X120184524Y-136942621D01*
X120032143Y-136904526D01*
X119841667Y-136904526D01*
X119689286Y-136942621D01*
X119613095Y-136980716D01*
X119575000Y-137018812D01*
X119536905Y-137095002D01*
X120336905Y-137704526D02*
X119536905Y-137704526D01*
X119536905Y-138009288D01*
X119575000Y-138085479D01*
X119613095Y-138123574D01*
X119689286Y-138161669D01*
X119803571Y-138161669D01*
X119879762Y-138123574D01*
X119917857Y-138085479D01*
X119955952Y-138009288D01*
X119955952Y-137704526D01*
X119917857Y-138771193D02*
X119917857Y-138504526D01*
X120336905Y-138504526D02*
X119536905Y-138504526D01*
X119536905Y-138885479D01*
X121229762Y-125399762D02*
X121191667Y-125323571D01*
X121153571Y-125285476D01*
X121077381Y-125247381D01*
X121039286Y-125247381D01*
X120963095Y-125285476D01*
X120925000Y-125323571D01*
X120886905Y-125399762D01*
X120886905Y-125552143D01*
X120925000Y-125628333D01*
X120963095Y-125666429D01*
X121039286Y-125704524D01*
X121077381Y-125704524D01*
X121153571Y-125666429D01*
X121191667Y-125628333D01*
X121229762Y-125552143D01*
X121229762Y-125399762D01*
X121267857Y-125323571D01*
X121305952Y-125285476D01*
X121382143Y-125247381D01*
X121534524Y-125247381D01*
X121610714Y-125285476D01*
X121648810Y-125323571D01*
X121686905Y-125399762D01*
X121686905Y-125552143D01*
X121648810Y-125628333D01*
X121610714Y-125666429D01*
X121534524Y-125704524D01*
X121382143Y-125704524D01*
X121305952Y-125666429D01*
X121267857Y-125628333D01*
X121229762Y-125552143D01*
X120886905Y-126428334D02*
X120886905Y-126047381D01*
X121267857Y-126009286D01*
X121229762Y-126047381D01*
X121191667Y-126123572D01*
X121191667Y-126314048D01*
X121229762Y-126390238D01*
X121267857Y-126428334D01*
X121344048Y-126466429D01*
X121534524Y-126466429D01*
X121610714Y-126428334D01*
X121648810Y-126390238D01*
X121686905Y-126314048D01*
X121686905Y-126123572D01*
X121648810Y-126047381D01*
X121610714Y-126009286D01*
X121229762Y-126923572D02*
X121191667Y-126847381D01*
X121153571Y-126809286D01*
X121077381Y-126771191D01*
X121039286Y-126771191D01*
X120963095Y-126809286D01*
X120925000Y-126847381D01*
X120886905Y-126923572D01*
X120886905Y-127075953D01*
X120925000Y-127152143D01*
X120963095Y-127190239D01*
X121039286Y-127228334D01*
X121077381Y-127228334D01*
X121153571Y-127190239D01*
X121191667Y-127152143D01*
X121229762Y-127075953D01*
X121229762Y-126923572D01*
X121267857Y-126847381D01*
X121305952Y-126809286D01*
X121382143Y-126771191D01*
X121534524Y-126771191D01*
X121610714Y-126809286D01*
X121648810Y-126847381D01*
X121686905Y-126923572D01*
X121686905Y-127075953D01*
X121648810Y-127152143D01*
X121610714Y-127190239D01*
X121534524Y-127228334D01*
X121382143Y-127228334D01*
X121305952Y-127190239D01*
X121267857Y-127152143D01*
X121229762Y-127075953D01*
X120886905Y-127723572D02*
X120886905Y-127799763D01*
X120925000Y-127875953D01*
X120963095Y-127914048D01*
X121039286Y-127952144D01*
X121191667Y-127990239D01*
X121382143Y-127990239D01*
X121534524Y-127952144D01*
X121610714Y-127914048D01*
X121648810Y-127875953D01*
X121686905Y-127799763D01*
X121686905Y-127723572D01*
X121648810Y-127647382D01*
X121610714Y-127609286D01*
X121534524Y-127571191D01*
X121382143Y-127533096D01*
X121191667Y-127533096D01*
X121039286Y-127571191D01*
X120963095Y-127609286D01*
X120925000Y-127647382D01*
X120886905Y-127723572D01*
X121610714Y-129399763D02*
X121648810Y-129361668D01*
X121686905Y-129247382D01*
X121686905Y-129171192D01*
X121648810Y-129056906D01*
X121572619Y-128980715D01*
X121496429Y-128942620D01*
X121344048Y-128904525D01*
X121229762Y-128904525D01*
X121077381Y-128942620D01*
X121001190Y-128980715D01*
X120925000Y-129056906D01*
X120886905Y-129171192D01*
X120886905Y-129247382D01*
X120925000Y-129361668D01*
X120963095Y-129399763D01*
X120886905Y-129666430D02*
X120886905Y-130199763D01*
X121686905Y-129856906D01*
X120886905Y-130656906D02*
X120886905Y-130733097D01*
X120925000Y-130809287D01*
X120963095Y-130847382D01*
X121039286Y-130885478D01*
X121191667Y-130923573D01*
X121382143Y-130923573D01*
X121534524Y-130885478D01*
X121610714Y-130847382D01*
X121648810Y-130809287D01*
X121686905Y-130733097D01*
X121686905Y-130656906D01*
X121648810Y-130580716D01*
X121610714Y-130542620D01*
X121534524Y-130504525D01*
X121382143Y-130466430D01*
X121191667Y-130466430D01*
X121039286Y-130504525D01*
X120963095Y-130542620D01*
X120925000Y-130580716D01*
X120886905Y-130656906D01*
X120848810Y-131837859D02*
X121877381Y-131152144D01*
X121610714Y-132561668D02*
X121648810Y-132523573D01*
X121686905Y-132409287D01*
X121686905Y-132333097D01*
X121648810Y-132218811D01*
X121572619Y-132142620D01*
X121496429Y-132104525D01*
X121344048Y-132066430D01*
X121229762Y-132066430D01*
X121077381Y-132104525D01*
X121001190Y-132142620D01*
X120925000Y-132218811D01*
X120886905Y-132333097D01*
X120886905Y-132409287D01*
X120925000Y-132523573D01*
X120963095Y-132561668D01*
X120886905Y-132828335D02*
X120886905Y-133361668D01*
X121686905Y-133018811D01*
X121686905Y-134085478D02*
X121686905Y-133628335D01*
X121686905Y-133856906D02*
X120886905Y-133856906D01*
X121001190Y-133780716D01*
X121077381Y-133704525D01*
X121115476Y-133628335D01*
X121610714Y-134428335D02*
X121648810Y-134466430D01*
X121686905Y-134428335D01*
X121648810Y-134390240D01*
X121610714Y-134428335D01*
X121686905Y-134428335D01*
X121191667Y-134428335D02*
X121229762Y-134466430D01*
X121267857Y-134428335D01*
X121229762Y-134390240D01*
X121191667Y-134428335D01*
X121267857Y-134428335D01*
X120963095Y-135380716D02*
X120925000Y-135418811D01*
X120886905Y-135495002D01*
X120886905Y-135685478D01*
X120925000Y-135761668D01*
X120963095Y-135799764D01*
X121039286Y-135837859D01*
X121115476Y-135837859D01*
X121229762Y-135799764D01*
X121686905Y-135342621D01*
X121686905Y-135837859D01*
X120963095Y-136142621D02*
X120925000Y-136180716D01*
X120886905Y-136256907D01*
X120886905Y-136447383D01*
X120925000Y-136523573D01*
X120963095Y-136561669D01*
X121039286Y-136599764D01*
X121115476Y-136599764D01*
X121229762Y-136561669D01*
X121686905Y-136104526D01*
X121686905Y-136599764D01*
X121153571Y-136942621D02*
X121686905Y-136942621D01*
X121229762Y-136942621D02*
X121191667Y-136980716D01*
X121153571Y-137056907D01*
X121153571Y-137171193D01*
X121191667Y-137247383D01*
X121267857Y-137285478D01*
X121686905Y-137285478D01*
X121267857Y-137933098D02*
X121267857Y-137666431D01*
X121686905Y-137666431D02*
X120886905Y-137666431D01*
X120886905Y-138047384D01*
D14*
X111573571Y-127008571D02*
X113073571Y-127365714D01*
X112002143Y-127651428D01*
X113073571Y-127937142D01*
X111573571Y-128294285D01*
X112645000Y-128794285D02*
X112645000Y-129508571D01*
X113073571Y-128651428D02*
X111573571Y-129151428D01*
X113073571Y-129651428D01*
X113073571Y-131008571D02*
X112359286Y-130508571D01*
X113073571Y-130151428D02*
X111573571Y-130151428D01*
X111573571Y-130722856D01*
X111645000Y-130865714D01*
X111716429Y-130937142D01*
X111859286Y-131008571D01*
X112073571Y-131008571D01*
X112216429Y-130937142D01*
X112287857Y-130865714D01*
X112359286Y-130722856D01*
X112359286Y-130151428D01*
X113073571Y-131651428D02*
X111573571Y-131651428D01*
X113073571Y-132508571D01*
X111573571Y-132508571D01*
X113073571Y-133222857D02*
X111573571Y-133222857D01*
X113073571Y-133937143D02*
X111573571Y-133937143D01*
X113073571Y-134794286D01*
X111573571Y-134794286D01*
X111645000Y-136294286D02*
X111573571Y-136151429D01*
X111573571Y-135937143D01*
X111645000Y-135722858D01*
X111787857Y-135580000D01*
X111930714Y-135508572D01*
X112216429Y-135437143D01*
X112430714Y-135437143D01*
X112716429Y-135508572D01*
X112859286Y-135580000D01*
X113002143Y-135722858D01*
X113073571Y-135937143D01*
X113073571Y-136080000D01*
X113002143Y-136294286D01*
X112930714Y-136365715D01*
X112430714Y-136365715D01*
X112430714Y-136080000D01*
X112930714Y-137008572D02*
X113002143Y-137080000D01*
X113073571Y-137008572D01*
X113002143Y-136937143D01*
X112930714Y-137008572D01*
X113073571Y-137008572D01*
X112502143Y-137008572D02*
X111645000Y-136937143D01*
X111573571Y-137008572D01*
X111645000Y-137080000D01*
X112502143Y-137008572D01*
X111573571Y-137008572D01*
D13*
X115178810Y-125413332D02*
X115216905Y-125527618D01*
X115216905Y-125718094D01*
X115178810Y-125794284D01*
X115140714Y-125832380D01*
X115064524Y-125870475D01*
X114988333Y-125870475D01*
X114912143Y-125832380D01*
X114874048Y-125794284D01*
X114835952Y-125718094D01*
X114797857Y-125565713D01*
X114759762Y-125489522D01*
X114721667Y-125451427D01*
X114645476Y-125413332D01*
X114569286Y-125413332D01*
X114493095Y-125451427D01*
X114455000Y-125489522D01*
X114416905Y-125565713D01*
X114416905Y-125756189D01*
X114455000Y-125870475D01*
X115216905Y-126213332D02*
X114416905Y-126213332D01*
X115216905Y-126594284D02*
X114416905Y-126594284D01*
X114416905Y-126784760D01*
X114455000Y-126899046D01*
X114531190Y-126975237D01*
X114607381Y-127013332D01*
X114759762Y-127051427D01*
X114874048Y-127051427D01*
X115026429Y-127013332D01*
X115102619Y-126975237D01*
X115178810Y-126899046D01*
X115216905Y-126784760D01*
X115216905Y-126594284D01*
X115178810Y-127356189D02*
X115216905Y-127432379D01*
X115216905Y-127584760D01*
X115178810Y-127660951D01*
X115102619Y-127699046D01*
X115064524Y-127699046D01*
X114988333Y-127660951D01*
X114950238Y-127584760D01*
X114950238Y-127470475D01*
X114912143Y-127394284D01*
X114835952Y-127356189D01*
X114797857Y-127356189D01*
X114721667Y-127394284D01*
X114683571Y-127470475D01*
X114683571Y-127584760D01*
X114721667Y-127660951D01*
X115216905Y-128651427D02*
X114683571Y-128651427D01*
X114759762Y-128651427D02*
X114721667Y-128689522D01*
X114683571Y-128765713D01*
X114683571Y-128879999D01*
X114721667Y-128956189D01*
X114797857Y-128994284D01*
X115216905Y-128994284D01*
X114797857Y-128994284D02*
X114721667Y-129032380D01*
X114683571Y-129108570D01*
X114683571Y-129222856D01*
X114721667Y-129299046D01*
X114797857Y-129337141D01*
X115216905Y-129337141D01*
X114683571Y-130060951D02*
X115216905Y-130060951D01*
X114683571Y-129718094D02*
X115102619Y-129718094D01*
X115178810Y-129756189D01*
X115216905Y-129832380D01*
X115216905Y-129946666D01*
X115178810Y-130022856D01*
X115140714Y-130060951D01*
X115178810Y-130403809D02*
X115216905Y-130479999D01*
X115216905Y-130632380D01*
X115178810Y-130708571D01*
X115102619Y-130746666D01*
X115064524Y-130746666D01*
X114988333Y-130708571D01*
X114950238Y-130632380D01*
X114950238Y-130518095D01*
X114912143Y-130441904D01*
X114835952Y-130403809D01*
X114797857Y-130403809D01*
X114721667Y-130441904D01*
X114683571Y-130518095D01*
X114683571Y-130632380D01*
X114721667Y-130708571D01*
X114683571Y-130975237D02*
X114683571Y-131279999D01*
X114416905Y-131089523D02*
X115102619Y-131089523D01*
X115178810Y-131127618D01*
X115216905Y-131203809D01*
X115216905Y-131279999D01*
X115216905Y-132156190D02*
X114416905Y-132156190D01*
X114721667Y-132156190D02*
X114683571Y-132232381D01*
X114683571Y-132384762D01*
X114721667Y-132460952D01*
X114759762Y-132499047D01*
X114835952Y-132537143D01*
X115064524Y-132537143D01*
X115140714Y-132499047D01*
X115178810Y-132460952D01*
X115216905Y-132384762D01*
X115216905Y-132232381D01*
X115178810Y-132156190D01*
X115178810Y-133184762D02*
X115216905Y-133108572D01*
X115216905Y-132956191D01*
X115178810Y-132880000D01*
X115102619Y-132841905D01*
X114797857Y-132841905D01*
X114721667Y-132880000D01*
X114683571Y-132956191D01*
X114683571Y-133108572D01*
X114721667Y-133184762D01*
X114797857Y-133222857D01*
X114874048Y-133222857D01*
X114950238Y-132841905D01*
X115216905Y-134289524D02*
X115178810Y-134213333D01*
X115140714Y-134175238D01*
X115064524Y-134137143D01*
X114835952Y-134137143D01*
X114759762Y-134175238D01*
X114721667Y-134213333D01*
X114683571Y-134289524D01*
X114683571Y-134403810D01*
X114721667Y-134480000D01*
X114759762Y-134518095D01*
X114835952Y-134556191D01*
X115064524Y-134556191D01*
X115140714Y-134518095D01*
X115178810Y-134480000D01*
X115216905Y-134403810D01*
X115216905Y-134289524D01*
X114683571Y-134784762D02*
X114683571Y-135089524D01*
X115216905Y-134899048D02*
X114531190Y-134899048D01*
X114455000Y-134937143D01*
X114416905Y-135013334D01*
X114416905Y-135089524D01*
X115178810Y-135927620D02*
X115216905Y-136003810D01*
X115216905Y-136156191D01*
X115178810Y-136232382D01*
X115102619Y-136270477D01*
X115064524Y-136270477D01*
X114988333Y-136232382D01*
X114950238Y-136156191D01*
X114950238Y-136041906D01*
X114912143Y-135965715D01*
X114835952Y-135927620D01*
X114797857Y-135927620D01*
X114721667Y-135965715D01*
X114683571Y-136041906D01*
X114683571Y-136156191D01*
X114721667Y-136232382D01*
X115216905Y-136956191D02*
X114797857Y-136956191D01*
X114721667Y-136918096D01*
X114683571Y-136841906D01*
X114683571Y-136689525D01*
X114721667Y-136613334D01*
X115178810Y-136956191D02*
X115216905Y-136880001D01*
X115216905Y-136689525D01*
X115178810Y-136613334D01*
X115102619Y-136575239D01*
X115026429Y-136575239D01*
X114950238Y-136613334D01*
X114912143Y-136689525D01*
X114912143Y-136880001D01*
X114874048Y-136956191D01*
X115216905Y-137337144D02*
X114683571Y-137337144D01*
X114759762Y-137337144D02*
X114721667Y-137375239D01*
X114683571Y-137451430D01*
X114683571Y-137565716D01*
X114721667Y-137641906D01*
X114797857Y-137680001D01*
X115216905Y-137680001D01*
X114797857Y-137680001D02*
X114721667Y-137718097D01*
X114683571Y-137794287D01*
X114683571Y-137908573D01*
X114721667Y-137984763D01*
X114797857Y-138022858D01*
X115216905Y-138022858D01*
X115178810Y-138708573D02*
X115216905Y-138632383D01*
X115216905Y-138480002D01*
X115178810Y-138403811D01*
X115102619Y-138365716D01*
X114797857Y-138365716D01*
X114721667Y-138403811D01*
X114683571Y-138480002D01*
X114683571Y-138632383D01*
X114721667Y-138708573D01*
X114797857Y-138746668D01*
X114874048Y-138746668D01*
X114950238Y-138365716D01*
X116033571Y-127394284D02*
X116033571Y-127699046D01*
X115766905Y-127508570D02*
X116452619Y-127508570D01*
X116528810Y-127546665D01*
X116566905Y-127622856D01*
X116566905Y-127699046D01*
X116033571Y-127889523D02*
X116566905Y-128079999D01*
X116033571Y-128270475D02*
X116566905Y-128079999D01*
X116757381Y-128003808D01*
X116795476Y-127965713D01*
X116833571Y-127889523D01*
X116033571Y-128575237D02*
X116833571Y-128575237D01*
X116071667Y-128575237D02*
X116033571Y-128651428D01*
X116033571Y-128803809D01*
X116071667Y-128879999D01*
X116109762Y-128918094D01*
X116185952Y-128956190D01*
X116414524Y-128956190D01*
X116490714Y-128918094D01*
X116528810Y-128879999D01*
X116566905Y-128803809D01*
X116566905Y-128651428D01*
X116528810Y-128575237D01*
X116528810Y-129603809D02*
X116566905Y-129527619D01*
X116566905Y-129375238D01*
X116528810Y-129299047D01*
X116452619Y-129260952D01*
X116147857Y-129260952D01*
X116071667Y-129299047D01*
X116033571Y-129375238D01*
X116033571Y-129527619D01*
X116071667Y-129603809D01*
X116147857Y-129641904D01*
X116224048Y-129641904D01*
X116300238Y-129260952D01*
X116566905Y-130937142D02*
X116147857Y-130937142D01*
X116071667Y-130899047D01*
X116033571Y-130822857D01*
X116033571Y-130670476D01*
X116071667Y-130594285D01*
X116528810Y-130937142D02*
X116566905Y-130860952D01*
X116566905Y-130670476D01*
X116528810Y-130594285D01*
X116452619Y-130556190D01*
X116376429Y-130556190D01*
X116300238Y-130594285D01*
X116262143Y-130670476D01*
X116262143Y-130860952D01*
X116224048Y-130937142D01*
X116033571Y-131318095D02*
X116566905Y-131318095D01*
X116109762Y-131318095D02*
X116071667Y-131356190D01*
X116033571Y-131432381D01*
X116033571Y-131546667D01*
X116071667Y-131622857D01*
X116147857Y-131660952D01*
X116566905Y-131660952D01*
X116566905Y-132384762D02*
X115766905Y-132384762D01*
X116528810Y-132384762D02*
X116566905Y-132308572D01*
X116566905Y-132156191D01*
X116528810Y-132080000D01*
X116490714Y-132041905D01*
X116414524Y-132003810D01*
X116185952Y-132003810D01*
X116109762Y-132041905D01*
X116071667Y-132080000D01*
X116033571Y-132156191D01*
X116033571Y-132308572D01*
X116071667Y-132384762D01*
X116566905Y-133375239D02*
X116033571Y-133375239D01*
X116109762Y-133375239D02*
X116071667Y-133413334D01*
X116033571Y-133489525D01*
X116033571Y-133603811D01*
X116071667Y-133680001D01*
X116147857Y-133718096D01*
X116566905Y-133718096D01*
X116147857Y-133718096D02*
X116071667Y-133756192D01*
X116033571Y-133832382D01*
X116033571Y-133946668D01*
X116071667Y-134022858D01*
X116147857Y-134060953D01*
X116566905Y-134060953D01*
X116566905Y-134784763D02*
X116147857Y-134784763D01*
X116071667Y-134746668D01*
X116033571Y-134670478D01*
X116033571Y-134518097D01*
X116071667Y-134441906D01*
X116528810Y-134784763D02*
X116566905Y-134708573D01*
X116566905Y-134518097D01*
X116528810Y-134441906D01*
X116452619Y-134403811D01*
X116376429Y-134403811D01*
X116300238Y-134441906D01*
X116262143Y-134518097D01*
X116262143Y-134708573D01*
X116224048Y-134784763D01*
X116033571Y-135051430D02*
X116033571Y-135356192D01*
X115766905Y-135165716D02*
X116452619Y-135165716D01*
X116528810Y-135203811D01*
X116566905Y-135280002D01*
X116566905Y-135356192D01*
X116528810Y-135965716D02*
X116566905Y-135889526D01*
X116566905Y-135737145D01*
X116528810Y-135660954D01*
X116490714Y-135622859D01*
X116414524Y-135584764D01*
X116185952Y-135584764D01*
X116109762Y-135622859D01*
X116071667Y-135660954D01*
X116033571Y-135737145D01*
X116033571Y-135889526D01*
X116071667Y-135965716D01*
X116566905Y-136308573D02*
X115766905Y-136308573D01*
X116566905Y-136651430D02*
X116147857Y-136651430D01*
X116071667Y-136613335D01*
X116033571Y-136537145D01*
X116033571Y-136422859D01*
X116071667Y-136346668D01*
X116109762Y-136308573D01*
X117916905Y-125832379D02*
X117383571Y-125832379D01*
X117459762Y-125832379D02*
X117421667Y-125870474D01*
X117383571Y-125946665D01*
X117383571Y-126060951D01*
X117421667Y-126137141D01*
X117497857Y-126175236D01*
X117916905Y-126175236D01*
X117497857Y-126175236D02*
X117421667Y-126213332D01*
X117383571Y-126289522D01*
X117383571Y-126403808D01*
X117421667Y-126479998D01*
X117497857Y-126518093D01*
X117916905Y-126518093D01*
X117916905Y-127013332D02*
X117878810Y-126937141D01*
X117840714Y-126899046D01*
X117764524Y-126860951D01*
X117535952Y-126860951D01*
X117459762Y-126899046D01*
X117421667Y-126937141D01*
X117383571Y-127013332D01*
X117383571Y-127127618D01*
X117421667Y-127203808D01*
X117459762Y-127241903D01*
X117535952Y-127279999D01*
X117764524Y-127279999D01*
X117840714Y-127241903D01*
X117878810Y-127203808D01*
X117916905Y-127127618D01*
X117916905Y-127013332D01*
X117383571Y-127508570D02*
X117383571Y-127813332D01*
X117116905Y-127622856D02*
X117802619Y-127622856D01*
X117878810Y-127660951D01*
X117916905Y-127737142D01*
X117916905Y-127813332D01*
X117916905Y-128079999D02*
X117116905Y-128079999D01*
X117916905Y-128422856D02*
X117497857Y-128422856D01*
X117421667Y-128384761D01*
X117383571Y-128308571D01*
X117383571Y-128194285D01*
X117421667Y-128118094D01*
X117459762Y-128079999D01*
X117878810Y-129108571D02*
X117916905Y-129032381D01*
X117916905Y-128880000D01*
X117878810Y-128803809D01*
X117802619Y-128765714D01*
X117497857Y-128765714D01*
X117421667Y-128803809D01*
X117383571Y-128880000D01*
X117383571Y-129032381D01*
X117421667Y-129108571D01*
X117497857Y-129146666D01*
X117574048Y-129146666D01*
X117650238Y-128765714D01*
X117916905Y-129489523D02*
X117383571Y-129489523D01*
X117535952Y-129489523D02*
X117459762Y-129527618D01*
X117421667Y-129565714D01*
X117383571Y-129641904D01*
X117383571Y-129718095D01*
X117916905Y-129984761D02*
X117116905Y-129984761D01*
X117421667Y-129984761D02*
X117383571Y-130060952D01*
X117383571Y-130213333D01*
X117421667Y-130289523D01*
X117459762Y-130327618D01*
X117535952Y-130365714D01*
X117764524Y-130365714D01*
X117840714Y-130327618D01*
X117878810Y-130289523D01*
X117916905Y-130213333D01*
X117916905Y-130060952D01*
X117878810Y-129984761D01*
X117916905Y-130822857D02*
X117878810Y-130746666D01*
X117840714Y-130708571D01*
X117764524Y-130670476D01*
X117535952Y-130670476D01*
X117459762Y-130708571D01*
X117421667Y-130746666D01*
X117383571Y-130822857D01*
X117383571Y-130937143D01*
X117421667Y-131013333D01*
X117459762Y-131051428D01*
X117535952Y-131089524D01*
X117764524Y-131089524D01*
X117840714Y-131051428D01*
X117878810Y-131013333D01*
X117916905Y-130937143D01*
X117916905Y-130822857D01*
X117916905Y-131775238D02*
X117497857Y-131775238D01*
X117421667Y-131737143D01*
X117383571Y-131660953D01*
X117383571Y-131508572D01*
X117421667Y-131432381D01*
X117878810Y-131775238D02*
X117916905Y-131699048D01*
X117916905Y-131508572D01*
X117878810Y-131432381D01*
X117802619Y-131394286D01*
X117726429Y-131394286D01*
X117650238Y-131432381D01*
X117612143Y-131508572D01*
X117612143Y-131699048D01*
X117574048Y-131775238D01*
X117916905Y-132156191D02*
X117383571Y-132156191D01*
X117535952Y-132156191D02*
X117459762Y-132194286D01*
X117421667Y-132232382D01*
X117383571Y-132308572D01*
X117383571Y-132384763D01*
X117916905Y-132994286D02*
X117116905Y-132994286D01*
X117878810Y-132994286D02*
X117916905Y-132918096D01*
X117916905Y-132765715D01*
X117878810Y-132689524D01*
X117840714Y-132651429D01*
X117764524Y-132613334D01*
X117535952Y-132613334D01*
X117459762Y-132651429D01*
X117421667Y-132689524D01*
X117383571Y-132765715D01*
X117383571Y-132918096D01*
X117421667Y-132994286D01*
X117383571Y-133908573D02*
X117916905Y-134099049D01*
X117383571Y-134289525D01*
X117916905Y-134708573D02*
X117878810Y-134632382D01*
X117840714Y-134594287D01*
X117764524Y-134556192D01*
X117535952Y-134556192D01*
X117459762Y-134594287D01*
X117421667Y-134632382D01*
X117383571Y-134708573D01*
X117383571Y-134822859D01*
X117421667Y-134899049D01*
X117459762Y-134937144D01*
X117535952Y-134975240D01*
X117764524Y-134975240D01*
X117840714Y-134937144D01*
X117878810Y-134899049D01*
X117916905Y-134822859D01*
X117916905Y-134708573D01*
X117916905Y-135432383D02*
X117878810Y-135356192D01*
X117802619Y-135318097D01*
X117116905Y-135318097D01*
X117383571Y-135622859D02*
X117383571Y-135927621D01*
X117116905Y-135737145D02*
X117802619Y-135737145D01*
X117878810Y-135775240D01*
X117916905Y-135851431D01*
X117916905Y-135927621D01*
X117916905Y-136537145D02*
X117497857Y-136537145D01*
X117421667Y-136499050D01*
X117383571Y-136422860D01*
X117383571Y-136270479D01*
X117421667Y-136194288D01*
X117878810Y-136537145D02*
X117916905Y-136460955D01*
X117916905Y-136270479D01*
X117878810Y-136194288D01*
X117802619Y-136156193D01*
X117726429Y-136156193D01*
X117650238Y-136194288D01*
X117612143Y-136270479D01*
X117612143Y-136460955D01*
X117574048Y-136537145D01*
X117383571Y-137260955D02*
X118031190Y-137260955D01*
X118107381Y-137222860D01*
X118145476Y-137184765D01*
X118183571Y-137108574D01*
X118183571Y-136994289D01*
X118145476Y-136918098D01*
X117878810Y-137260955D02*
X117916905Y-137184765D01*
X117916905Y-137032384D01*
X117878810Y-136956193D01*
X117840714Y-136918098D01*
X117764524Y-136880003D01*
X117535952Y-136880003D01*
X117459762Y-136918098D01*
X117421667Y-136956193D01*
X117383571Y-137032384D01*
X117383571Y-137184765D01*
X117421667Y-137260955D01*
X117878810Y-137946670D02*
X117916905Y-137870480D01*
X117916905Y-137718099D01*
X117878810Y-137641908D01*
X117802619Y-137603813D01*
X117497857Y-137603813D01*
X117421667Y-137641908D01*
X117383571Y-137718099D01*
X117383571Y-137870480D01*
X117421667Y-137946670D01*
X117497857Y-137984765D01*
X117574048Y-137984765D01*
X117650238Y-137603813D01*
X117840714Y-138327622D02*
X117878810Y-138365717D01*
X117916905Y-138327622D01*
X117878810Y-138289527D01*
X117840714Y-138327622D01*
X117916905Y-138327622D01*
X107041905Y-127285952D02*
X107041905Y-126828809D01*
X107041905Y-127057380D02*
X106241905Y-127057380D01*
X106356190Y-126981190D01*
X106432381Y-126904999D01*
X106470476Y-126828809D01*
X106241905Y-127781190D02*
X106241905Y-127857381D01*
X106280000Y-127933571D01*
X106318095Y-127971666D01*
X106394286Y-128009762D01*
X106546667Y-128047857D01*
X106737143Y-128047857D01*
X106889524Y-128009762D01*
X106965714Y-127971666D01*
X107003810Y-127933571D01*
X107041905Y-127857381D01*
X107041905Y-127781190D01*
X107003810Y-127705000D01*
X106965714Y-127666904D01*
X106889524Y-127628809D01*
X106737143Y-127590714D01*
X106546667Y-127590714D01*
X106394286Y-127628809D01*
X106318095Y-127666904D01*
X106280000Y-127705000D01*
X106241905Y-127781190D01*
X106241905Y-128543095D02*
X106241905Y-128619286D01*
X106280000Y-128695476D01*
X106318095Y-128733571D01*
X106394286Y-128771667D01*
X106546667Y-128809762D01*
X106737143Y-128809762D01*
X106889524Y-128771667D01*
X106965714Y-128733571D01*
X107003810Y-128695476D01*
X107041905Y-128619286D01*
X107041905Y-128543095D01*
X107003810Y-128466905D01*
X106965714Y-128428809D01*
X106889524Y-128390714D01*
X106737143Y-128352619D01*
X106546667Y-128352619D01*
X106394286Y-128390714D01*
X106318095Y-128428809D01*
X106280000Y-128466905D01*
X106241905Y-128543095D01*
X106241905Y-129305000D02*
X106241905Y-129381191D01*
X106280000Y-129457381D01*
X106318095Y-129495476D01*
X106394286Y-129533572D01*
X106546667Y-129571667D01*
X106737143Y-129571667D01*
X106889524Y-129533572D01*
X106965714Y-129495476D01*
X107003810Y-129457381D01*
X107041905Y-129381191D01*
X107041905Y-129305000D01*
X107003810Y-129228810D01*
X106965714Y-129190714D01*
X106889524Y-129152619D01*
X106737143Y-129114524D01*
X106546667Y-129114524D01*
X106394286Y-129152619D01*
X106318095Y-129190714D01*
X106280000Y-129228810D01*
X106241905Y-129305000D01*
X106508571Y-129914524D02*
X107308571Y-129914524D01*
X106546667Y-129914524D02*
X106508571Y-129990715D01*
X106508571Y-130143096D01*
X106546667Y-130219286D01*
X106584762Y-130257381D01*
X106660952Y-130295477D01*
X106889524Y-130295477D01*
X106965714Y-130257381D01*
X107003810Y-130219286D01*
X107041905Y-130143096D01*
X107041905Y-129990715D01*
X107003810Y-129914524D01*
X106622857Y-130905001D02*
X106622857Y-130638334D01*
X107041905Y-130638334D02*
X106241905Y-130638334D01*
X106241905Y-131019287D01*
X103333571Y-127590714D02*
X103866905Y-127590714D01*
X103028810Y-127400238D02*
X103600238Y-127209762D01*
X103600238Y-127705000D01*
X103066905Y-127933572D02*
X103066905Y-128466905D01*
X103866905Y-128124048D01*
X103066905Y-128924048D02*
X103066905Y-129000239D01*
X103105000Y-129076429D01*
X103143095Y-129114524D01*
X103219286Y-129152620D01*
X103371667Y-129190715D01*
X103562143Y-129190715D01*
X103714524Y-129152620D01*
X103790714Y-129114524D01*
X103828810Y-129076429D01*
X103866905Y-129000239D01*
X103866905Y-128924048D01*
X103828810Y-128847858D01*
X103790714Y-128809762D01*
X103714524Y-128771667D01*
X103562143Y-128733572D01*
X103371667Y-128733572D01*
X103219286Y-128771667D01*
X103143095Y-128809762D01*
X103105000Y-128847858D01*
X103066905Y-128924048D01*
X103333571Y-129533572D02*
X104133571Y-129533572D01*
X103371667Y-129533572D02*
X103333571Y-129609763D01*
X103333571Y-129762144D01*
X103371667Y-129838334D01*
X103409762Y-129876429D01*
X103485952Y-129914525D01*
X103714524Y-129914525D01*
X103790714Y-129876429D01*
X103828810Y-129838334D01*
X103866905Y-129762144D01*
X103866905Y-129609763D01*
X103828810Y-129533572D01*
X103447857Y-130524049D02*
X103447857Y-130257382D01*
X103866905Y-130257382D02*
X103066905Y-130257382D01*
X103066905Y-130638335D01*
X105771905Y-114712857D02*
X105771905Y-114255714D01*
X105771905Y-114484285D02*
X104971905Y-114484285D01*
X105086190Y-114408095D01*
X105162381Y-114331904D01*
X105200476Y-114255714D01*
X104971905Y-115208095D02*
X104971905Y-115284286D01*
X105010000Y-115360476D01*
X105048095Y-115398571D01*
X105124286Y-115436667D01*
X105276667Y-115474762D01*
X105467143Y-115474762D01*
X105619524Y-115436667D01*
X105695714Y-115398571D01*
X105733810Y-115360476D01*
X105771905Y-115284286D01*
X105771905Y-115208095D01*
X105733810Y-115131905D01*
X105695714Y-115093809D01*
X105619524Y-115055714D01*
X105467143Y-115017619D01*
X105276667Y-115017619D01*
X105124286Y-115055714D01*
X105048095Y-115093809D01*
X105010000Y-115131905D01*
X104971905Y-115208095D01*
X105238571Y-116160476D02*
X105771905Y-116160476D01*
X105238571Y-115817619D02*
X105657619Y-115817619D01*
X105733810Y-115855714D01*
X105771905Y-115931905D01*
X105771905Y-116046191D01*
X105733810Y-116122381D01*
X105695714Y-116160476D01*
X105352857Y-116808096D02*
X105352857Y-116541429D01*
X105771905Y-116541429D02*
X104971905Y-116541429D01*
X104971905Y-116922382D01*
X105048095Y-119113571D02*
X105010000Y-119151666D01*
X104971905Y-119227857D01*
X104971905Y-119418333D01*
X105010000Y-119494523D01*
X105048095Y-119532619D01*
X105124286Y-119570714D01*
X105200476Y-119570714D01*
X105314762Y-119532619D01*
X105771905Y-119075476D01*
X105771905Y-119570714D01*
X105771905Y-119913571D02*
X104971905Y-119913571D01*
X105771905Y-120370714D01*
X104971905Y-120370714D01*
X105048095Y-120713571D02*
X105010000Y-120751666D01*
X104971905Y-120827857D01*
X104971905Y-121018333D01*
X105010000Y-121094523D01*
X105048095Y-121132619D01*
X105124286Y-121170714D01*
X105200476Y-121170714D01*
X105314762Y-121132619D01*
X105771905Y-120675476D01*
X105771905Y-121170714D01*
X105048095Y-121475476D02*
X105010000Y-121513571D01*
X104971905Y-121589762D01*
X104971905Y-121780238D01*
X105010000Y-121856428D01*
X105048095Y-121894524D01*
X105124286Y-121932619D01*
X105200476Y-121932619D01*
X105314762Y-121894524D01*
X105771905Y-121437381D01*
X105771905Y-121932619D01*
X105048095Y-122237381D02*
X105010000Y-122275476D01*
X104971905Y-122351667D01*
X104971905Y-122542143D01*
X105010000Y-122618333D01*
X105048095Y-122656429D01*
X105124286Y-122694524D01*
X105200476Y-122694524D01*
X105314762Y-122656429D01*
X105771905Y-122199286D01*
X105771905Y-122694524D01*
X105048095Y-122999286D02*
X105010000Y-123037381D01*
X104971905Y-123113572D01*
X104971905Y-123304048D01*
X105010000Y-123380238D01*
X105048095Y-123418334D01*
X105124286Y-123456429D01*
X105200476Y-123456429D01*
X105314762Y-123418334D01*
X105771905Y-122961191D01*
X105771905Y-123456429D01*
M02*
