G04 #@! TF.FileFunction,Legend,Bot*
%FSLAX46Y46*%
G04 Gerber Fmt 4.6, Leading zero omitted, Abs format (unit mm)*
G04 Created by KiCad (PCBNEW 4.0.7) date 10/08/19 17:55:41*
%MOMM*%
%LPD*%
G01*
G04 APERTURE LIST*
%ADD10C,0.100000*%
%ADD11C,0.200000*%
%ADD12C,0.150000*%
%ADD13C,0.300000*%
G04 APERTURE END LIST*
D10*
D11*
X111760000Y-99060000D02*
X111760000Y-97790000D01*
X111760000Y-99060000D02*
X112395000Y-98425000D01*
X111125000Y-98425000D02*
X111760000Y-99060000D01*
X102235000Y-99695000D02*
X102235000Y-97790000D01*
X102235000Y-97790000D02*
X102870000Y-98425000D01*
X101600000Y-98425000D02*
X102235000Y-97790000D01*
X142875000Y-98425000D02*
X142875000Y-99695000D01*
X140335000Y-98425000D02*
X142875000Y-98425000D01*
X140335000Y-99695000D02*
X140335000Y-98425000D01*
D12*
X136171905Y-107886429D02*
X136171905Y-107505476D01*
X135371905Y-107505476D01*
X136171905Y-108153095D02*
X135638571Y-108153095D01*
X135371905Y-108153095D02*
X135410000Y-108115000D01*
X135448095Y-108153095D01*
X135410000Y-108191190D01*
X135371905Y-108153095D01*
X135448095Y-108153095D01*
X135638571Y-108534047D02*
X136171905Y-108534047D01*
X135714762Y-108534047D02*
X135676667Y-108572142D01*
X135638571Y-108648333D01*
X135638571Y-108762619D01*
X135676667Y-108838809D01*
X135752857Y-108876904D01*
X136171905Y-108876904D01*
X136171905Y-109257857D02*
X135371905Y-109257857D01*
X135867143Y-109334048D02*
X136171905Y-109562619D01*
X135638571Y-109562619D02*
X135943333Y-109257857D01*
X136171905Y-110972143D02*
X135790952Y-110705476D01*
X136171905Y-110515000D02*
X135371905Y-110515000D01*
X135371905Y-110819762D01*
X135410000Y-110895953D01*
X135448095Y-110934048D01*
X135524286Y-110972143D01*
X135638571Y-110972143D01*
X135714762Y-110934048D01*
X135752857Y-110895953D01*
X135790952Y-110819762D01*
X135790952Y-110515000D01*
X135448095Y-111276905D02*
X135410000Y-111315000D01*
X135371905Y-111391191D01*
X135371905Y-111581667D01*
X135410000Y-111657857D01*
X135448095Y-111695953D01*
X135524286Y-111734048D01*
X135600476Y-111734048D01*
X135714762Y-111695953D01*
X136171905Y-111238810D01*
X136171905Y-111734048D01*
X136133810Y-112115000D02*
X136171905Y-112115000D01*
X136248095Y-112076905D01*
X136286190Y-112038810D01*
X137521905Y-107619762D02*
X137483810Y-107543571D01*
X137407619Y-107505476D01*
X136721905Y-107505476D01*
X137483810Y-108229286D02*
X137521905Y-108153096D01*
X137521905Y-108000715D01*
X137483810Y-107924524D01*
X137407619Y-107886429D01*
X137102857Y-107886429D01*
X137026667Y-107924524D01*
X136988571Y-108000715D01*
X136988571Y-108153096D01*
X137026667Y-108229286D01*
X137102857Y-108267381D01*
X137179048Y-108267381D01*
X137255238Y-107886429D01*
X137521905Y-108953095D02*
X137102857Y-108953095D01*
X137026667Y-108915000D01*
X136988571Y-108838810D01*
X136988571Y-108686429D01*
X137026667Y-108610238D01*
X137483810Y-108953095D02*
X137521905Y-108876905D01*
X137521905Y-108686429D01*
X137483810Y-108610238D01*
X137407619Y-108572143D01*
X137331429Y-108572143D01*
X137255238Y-108610238D01*
X137217143Y-108686429D01*
X137217143Y-108876905D01*
X137179048Y-108953095D01*
X136988571Y-109257858D02*
X137521905Y-109448334D01*
X136988571Y-109638810D01*
X137483810Y-110248334D02*
X137521905Y-110172144D01*
X137521905Y-110019763D01*
X137483810Y-109943572D01*
X137407619Y-109905477D01*
X137102857Y-109905477D01*
X137026667Y-109943572D01*
X136988571Y-110019763D01*
X136988571Y-110172144D01*
X137026667Y-110248334D01*
X137102857Y-110286429D01*
X137179048Y-110286429D01*
X137255238Y-109905477D01*
X137521905Y-111695953D02*
X137140952Y-111429286D01*
X137521905Y-111238810D02*
X136721905Y-111238810D01*
X136721905Y-111543572D01*
X136760000Y-111619763D01*
X136798095Y-111657858D01*
X136874286Y-111695953D01*
X136988571Y-111695953D01*
X137064762Y-111657858D01*
X137102857Y-111619763D01*
X137140952Y-111543572D01*
X137140952Y-111238810D01*
X136721905Y-111962620D02*
X136721905Y-112457858D01*
X137026667Y-112191191D01*
X137026667Y-112305477D01*
X137064762Y-112381667D01*
X137102857Y-112419763D01*
X137179048Y-112457858D01*
X137369524Y-112457858D01*
X137445714Y-112419763D01*
X137483810Y-112381667D01*
X137521905Y-112305477D01*
X137521905Y-112076905D01*
X137483810Y-112000715D01*
X137445714Y-111962620D01*
X137483810Y-113715001D02*
X137521905Y-113638811D01*
X137521905Y-113486430D01*
X137483810Y-113410239D01*
X137407619Y-113372144D01*
X137102857Y-113372144D01*
X137026667Y-113410239D01*
X136988571Y-113486430D01*
X136988571Y-113638811D01*
X137026667Y-113715001D01*
X137102857Y-113753096D01*
X137179048Y-113753096D01*
X137255238Y-113372144D01*
X137521905Y-114095953D02*
X136988571Y-114095953D01*
X137064762Y-114095953D02*
X137026667Y-114134048D01*
X136988571Y-114210239D01*
X136988571Y-114324525D01*
X137026667Y-114400715D01*
X137102857Y-114438810D01*
X137521905Y-114438810D01*
X137102857Y-114438810D02*
X137026667Y-114476906D01*
X136988571Y-114553096D01*
X136988571Y-114667382D01*
X137026667Y-114743572D01*
X137102857Y-114781667D01*
X137521905Y-114781667D01*
X136988571Y-115162620D02*
X137788571Y-115162620D01*
X137026667Y-115162620D02*
X136988571Y-115238811D01*
X136988571Y-115391192D01*
X137026667Y-115467382D01*
X137064762Y-115505477D01*
X137140952Y-115543573D01*
X137369524Y-115543573D01*
X137445714Y-115505477D01*
X137483810Y-115467382D01*
X137521905Y-115391192D01*
X137521905Y-115238811D01*
X137483810Y-115162620D01*
X136988571Y-115772144D02*
X136988571Y-116076906D01*
X136721905Y-115886430D02*
X137407619Y-115886430D01*
X137483810Y-115924525D01*
X137521905Y-116000716D01*
X137521905Y-116076906D01*
X136988571Y-116267383D02*
X137521905Y-116457859D01*
X136988571Y-116648335D02*
X137521905Y-116457859D01*
X137712381Y-116381668D01*
X137750476Y-116343573D01*
X137788571Y-116267383D01*
X138338571Y-107391190D02*
X138338571Y-107695952D01*
X138871905Y-107505476D02*
X138186190Y-107505476D01*
X138110000Y-107543571D01*
X138071905Y-107619762D01*
X138071905Y-107695952D01*
X138871905Y-108076905D02*
X138833810Y-108000714D01*
X138795714Y-107962619D01*
X138719524Y-107924524D01*
X138490952Y-107924524D01*
X138414762Y-107962619D01*
X138376667Y-108000714D01*
X138338571Y-108076905D01*
X138338571Y-108191191D01*
X138376667Y-108267381D01*
X138414762Y-108305476D01*
X138490952Y-108343572D01*
X138719524Y-108343572D01*
X138795714Y-108305476D01*
X138833810Y-108267381D01*
X138871905Y-108191191D01*
X138871905Y-108076905D01*
X138871905Y-108686429D02*
X138338571Y-108686429D01*
X138490952Y-108686429D02*
X138414762Y-108724524D01*
X138376667Y-108762620D01*
X138338571Y-108838810D01*
X138338571Y-108915001D01*
X138833810Y-109753096D02*
X138871905Y-109867382D01*
X138871905Y-110057858D01*
X138833810Y-110134048D01*
X138795714Y-110172144D01*
X138719524Y-110210239D01*
X138643333Y-110210239D01*
X138567143Y-110172144D01*
X138529048Y-110134048D01*
X138490952Y-110057858D01*
X138452857Y-109905477D01*
X138414762Y-109829286D01*
X138376667Y-109791191D01*
X138300476Y-109753096D01*
X138224286Y-109753096D01*
X138148095Y-109791191D01*
X138110000Y-109829286D01*
X138071905Y-109905477D01*
X138071905Y-110095953D01*
X138110000Y-110210239D01*
X138338571Y-110438810D02*
X138338571Y-110743572D01*
X138071905Y-110553096D02*
X138757619Y-110553096D01*
X138833810Y-110591191D01*
X138871905Y-110667382D01*
X138871905Y-110743572D01*
X138833810Y-111315001D02*
X138871905Y-111238811D01*
X138871905Y-111086430D01*
X138833810Y-111010239D01*
X138757619Y-110972144D01*
X138452857Y-110972144D01*
X138376667Y-111010239D01*
X138338571Y-111086430D01*
X138338571Y-111238811D01*
X138376667Y-111315001D01*
X138452857Y-111353096D01*
X138529048Y-111353096D01*
X138605238Y-110972144D01*
X138871905Y-111695953D02*
X138338571Y-111695953D01*
X138490952Y-111695953D02*
X138414762Y-111734048D01*
X138376667Y-111772144D01*
X138338571Y-111848334D01*
X138338571Y-111924525D01*
X138833810Y-112495953D02*
X138871905Y-112419763D01*
X138871905Y-112267382D01*
X138833810Y-112191191D01*
X138757619Y-112153096D01*
X138452857Y-112153096D01*
X138376667Y-112191191D01*
X138338571Y-112267382D01*
X138338571Y-112419763D01*
X138376667Y-112495953D01*
X138452857Y-112534048D01*
X138529048Y-112534048D01*
X138605238Y-112153096D01*
X138871905Y-112991191D02*
X138833810Y-112915000D01*
X138795714Y-112876905D01*
X138719524Y-112838810D01*
X138490952Y-112838810D01*
X138414762Y-112876905D01*
X138376667Y-112915000D01*
X138338571Y-112991191D01*
X138338571Y-113105477D01*
X138376667Y-113181667D01*
X138414762Y-113219762D01*
X138490952Y-113257858D01*
X138719524Y-113257858D01*
X138795714Y-113219762D01*
X138833810Y-113181667D01*
X138871905Y-113105477D01*
X138871905Y-112991191D01*
X138833810Y-114172144D02*
X138871905Y-114286430D01*
X138871905Y-114476906D01*
X138833810Y-114553096D01*
X138795714Y-114591192D01*
X138719524Y-114629287D01*
X138643333Y-114629287D01*
X138567143Y-114591192D01*
X138529048Y-114553096D01*
X138490952Y-114476906D01*
X138452857Y-114324525D01*
X138414762Y-114248334D01*
X138376667Y-114210239D01*
X138300476Y-114172144D01*
X138224286Y-114172144D01*
X138148095Y-114210239D01*
X138110000Y-114248334D01*
X138071905Y-114324525D01*
X138071905Y-114515001D01*
X138110000Y-114629287D01*
X138871905Y-114972144D02*
X138071905Y-114972144D01*
X138871905Y-115353096D02*
X138071905Y-115353096D01*
X138071905Y-115543572D01*
X138110000Y-115657858D01*
X138186190Y-115734049D01*
X138262381Y-115772144D01*
X138414762Y-115810239D01*
X138529048Y-115810239D01*
X138681429Y-115772144D01*
X138757619Y-115734049D01*
X138833810Y-115657858D01*
X138871905Y-115543572D01*
X138871905Y-115353096D01*
X138795714Y-116153096D02*
X138833810Y-116191191D01*
X138871905Y-116153096D01*
X138833810Y-116115001D01*
X138795714Y-116153096D01*
X138871905Y-116153096D01*
D11*
X134620000Y-118110000D02*
X134620000Y-105410000D01*
X140335000Y-118110000D02*
X134620000Y-118110000D01*
X140335000Y-105410000D02*
X140335000Y-118110000D01*
X134620000Y-105410000D02*
X140335000Y-105410000D01*
D10*
X105721665Y-137476667D02*
X105954999Y-137143333D01*
X106121665Y-137476667D02*
X106121665Y-136776667D01*
X105854999Y-136776667D01*
X105788332Y-136810000D01*
X105754999Y-136843333D01*
X105721665Y-136910000D01*
X105721665Y-137010000D01*
X105754999Y-137076667D01*
X105788332Y-137110000D01*
X105854999Y-137143333D01*
X106121665Y-137143333D01*
X105154999Y-137443333D02*
X105221665Y-137476667D01*
X105354999Y-137476667D01*
X105421665Y-137443333D01*
X105454999Y-137376667D01*
X105454999Y-137110000D01*
X105421665Y-137043333D01*
X105354999Y-137010000D01*
X105221665Y-137010000D01*
X105154999Y-137043333D01*
X105121665Y-137110000D01*
X105121665Y-137176667D01*
X105454999Y-137243333D01*
X104888332Y-137010000D02*
X104721665Y-137476667D01*
X104554999Y-137010000D01*
X104288332Y-137476667D02*
X104288332Y-137010000D01*
X104288332Y-136776667D02*
X104321666Y-136810000D01*
X104288332Y-136843333D01*
X104254999Y-136810000D01*
X104288332Y-136776667D01*
X104288332Y-136843333D01*
X103988333Y-137443333D02*
X103921666Y-137476667D01*
X103788333Y-137476667D01*
X103721666Y-137443333D01*
X103688333Y-137376667D01*
X103688333Y-137343333D01*
X103721666Y-137276667D01*
X103788333Y-137243333D01*
X103888333Y-137243333D01*
X103954999Y-137210000D01*
X103988333Y-137143333D01*
X103988333Y-137110000D01*
X103954999Y-137043333D01*
X103888333Y-137010000D01*
X103788333Y-137010000D01*
X103721666Y-137043333D01*
X103388332Y-137476667D02*
X103388332Y-137010000D01*
X103388332Y-136776667D02*
X103421666Y-136810000D01*
X103388332Y-136843333D01*
X103354999Y-136810000D01*
X103388332Y-136776667D01*
X103388332Y-136843333D01*
X102954999Y-137476667D02*
X103021666Y-137443333D01*
X103054999Y-137410000D01*
X103088333Y-137343333D01*
X103088333Y-137143333D01*
X103054999Y-137076667D01*
X103021666Y-137043333D01*
X102954999Y-137010000D01*
X102854999Y-137010000D01*
X102788333Y-137043333D01*
X102754999Y-137076667D01*
X102721666Y-137143333D01*
X102721666Y-137343333D01*
X102754999Y-137410000D01*
X102788333Y-137443333D01*
X102854999Y-137476667D01*
X102954999Y-137476667D01*
X102421666Y-137010000D02*
X102421666Y-137476667D01*
X102421666Y-137076667D02*
X102388333Y-137043333D01*
X102321666Y-137010000D01*
X102221666Y-137010000D01*
X102155000Y-137043333D01*
X102121666Y-137110000D01*
X102121666Y-137476667D01*
X100855000Y-137410000D02*
X100888334Y-137443333D01*
X100988334Y-137476667D01*
X101055000Y-137476667D01*
X101155000Y-137443333D01*
X101221667Y-137376667D01*
X101255000Y-137310000D01*
X101288334Y-137176667D01*
X101288334Y-137076667D01*
X101255000Y-136943333D01*
X101221667Y-136876667D01*
X101155000Y-136810000D01*
X101055000Y-136776667D01*
X100988334Y-136776667D01*
X100888334Y-136810000D01*
X100855000Y-136843333D01*
D12*
X140213811Y-136988571D02*
X140213811Y-137636190D01*
X140251906Y-137712381D01*
X140290001Y-137750476D01*
X140366192Y-137788571D01*
X140480477Y-137788571D01*
X140556668Y-137750476D01*
X140213811Y-137483810D02*
X140290001Y-137521905D01*
X140442382Y-137521905D01*
X140518573Y-137483810D01*
X140556668Y-137445714D01*
X140594763Y-137369524D01*
X140594763Y-137140952D01*
X140556668Y-137064762D01*
X140518573Y-137026667D01*
X140442382Y-136988571D01*
X140290001Y-136988571D01*
X140213811Y-137026667D01*
X139832858Y-137521905D02*
X139832858Y-136988571D01*
X139832858Y-136721905D02*
X139870953Y-136760000D01*
X139832858Y-136798095D01*
X139794763Y-136760000D01*
X139832858Y-136721905D01*
X139832858Y-136798095D01*
X139566192Y-136988571D02*
X139261430Y-136988571D01*
X139451906Y-136721905D02*
X139451906Y-137407619D01*
X139413811Y-137483810D01*
X139337620Y-137521905D01*
X139261430Y-137521905D01*
X138994763Y-137521905D02*
X138994763Y-136721905D01*
X138651906Y-137521905D02*
X138651906Y-137102857D01*
X138690001Y-137026667D01*
X138766191Y-136988571D01*
X138880477Y-136988571D01*
X138956668Y-137026667D01*
X138994763Y-137064762D01*
X137928096Y-136988571D02*
X137928096Y-137521905D01*
X138270953Y-136988571D02*
X138270953Y-137407619D01*
X138232858Y-137483810D01*
X138156667Y-137521905D01*
X138042381Y-137521905D01*
X137966191Y-137483810D01*
X137928096Y-137445714D01*
X137547143Y-137521905D02*
X137547143Y-136721905D01*
X137547143Y-137026667D02*
X137470952Y-136988571D01*
X137318571Y-136988571D01*
X137242381Y-137026667D01*
X137204286Y-137064762D01*
X137166190Y-137140952D01*
X137166190Y-137369524D01*
X137204286Y-137445714D01*
X137242381Y-137483810D01*
X137318571Y-137521905D01*
X137470952Y-137521905D01*
X137547143Y-137483810D01*
X136823333Y-137445714D02*
X136785238Y-137483810D01*
X136823333Y-137521905D01*
X136861428Y-137483810D01*
X136823333Y-137445714D01*
X136823333Y-137521905D01*
X136099524Y-137483810D02*
X136175714Y-137521905D01*
X136328095Y-137521905D01*
X136404286Y-137483810D01*
X136442381Y-137445714D01*
X136480476Y-137369524D01*
X136480476Y-137140952D01*
X136442381Y-137064762D01*
X136404286Y-137026667D01*
X136328095Y-136988571D01*
X136175714Y-136988571D01*
X136099524Y-137026667D01*
X135642381Y-137521905D02*
X135718572Y-137483810D01*
X135756667Y-137445714D01*
X135794762Y-137369524D01*
X135794762Y-137140952D01*
X135756667Y-137064762D01*
X135718572Y-137026667D01*
X135642381Y-136988571D01*
X135528095Y-136988571D01*
X135451905Y-137026667D01*
X135413810Y-137064762D01*
X135375714Y-137140952D01*
X135375714Y-137369524D01*
X135413810Y-137445714D01*
X135451905Y-137483810D01*
X135528095Y-137521905D01*
X135642381Y-137521905D01*
X135032857Y-137521905D02*
X135032857Y-136988571D01*
X135032857Y-137064762D02*
X134994762Y-137026667D01*
X134918571Y-136988571D01*
X134804285Y-136988571D01*
X134728095Y-137026667D01*
X134690000Y-137102857D01*
X134690000Y-137521905D01*
X134690000Y-137102857D02*
X134651904Y-137026667D01*
X134575714Y-136988571D01*
X134461428Y-136988571D01*
X134385238Y-137026667D01*
X134347143Y-137102857D01*
X134347143Y-137521905D01*
X133394761Y-136683810D02*
X134080476Y-137712381D01*
X133242381Y-136988571D02*
X132937619Y-136988571D01*
X133128095Y-136721905D02*
X133128095Y-137407619D01*
X133090000Y-137483810D01*
X133013809Y-137521905D01*
X132937619Y-137521905D01*
X132366190Y-137483810D02*
X132442380Y-137521905D01*
X132594761Y-137521905D01*
X132670952Y-137483810D01*
X132709047Y-137407619D01*
X132709047Y-137102857D01*
X132670952Y-137026667D01*
X132594761Y-136988571D01*
X132442380Y-136988571D01*
X132366190Y-137026667D01*
X132328095Y-137102857D01*
X132328095Y-137179048D01*
X132709047Y-137255238D01*
X131985238Y-137521905D02*
X131985238Y-136721905D01*
X131985238Y-137026667D02*
X131909047Y-136988571D01*
X131756666Y-136988571D01*
X131680476Y-137026667D01*
X131642381Y-137064762D01*
X131604285Y-137140952D01*
X131604285Y-137369524D01*
X131642381Y-137445714D01*
X131680476Y-137483810D01*
X131756666Y-137521905D01*
X131909047Y-137521905D01*
X131985238Y-137483810D01*
X131147142Y-137521905D02*
X131223333Y-137483810D01*
X131261428Y-137407619D01*
X131261428Y-136721905D01*
D11*
X121920000Y-115570000D02*
X121285000Y-115570000D01*
X122555000Y-114935000D02*
X121920000Y-115570000D01*
X122555000Y-102235000D02*
X122555000Y-114935000D01*
X121920000Y-101600000D02*
X122555000Y-102235000D01*
X121920000Y-101600000D02*
X122555000Y-101600000D01*
X121920000Y-101600000D02*
X121920000Y-102235000D01*
X113665000Y-102235000D02*
X118745000Y-102235000D01*
D12*
X120459524Y-115851905D02*
X120459524Y-115051905D01*
X120192857Y-115623333D01*
X119926190Y-115051905D01*
X119926190Y-115851905D01*
X119392857Y-115051905D02*
X119240476Y-115051905D01*
X119164285Y-115090000D01*
X119088095Y-115166190D01*
X119050000Y-115318571D01*
X119050000Y-115585238D01*
X119088095Y-115737619D01*
X119164285Y-115813810D01*
X119240476Y-115851905D01*
X119392857Y-115851905D01*
X119469047Y-115813810D01*
X119545238Y-115737619D01*
X119583333Y-115585238D01*
X119583333Y-115318571D01*
X119545238Y-115166190D01*
X119469047Y-115090000D01*
X119392857Y-115051905D01*
X118707143Y-115851905D02*
X118707143Y-115051905D01*
X118516667Y-115051905D01*
X118402381Y-115090000D01*
X118326190Y-115166190D01*
X118288095Y-115242381D01*
X118250000Y-115394762D01*
X118250000Y-115509048D01*
X118288095Y-115661429D01*
X118326190Y-115737619D01*
X118402381Y-115813810D01*
X118516667Y-115851905D01*
X118707143Y-115851905D01*
X117907143Y-115432857D02*
X117640476Y-115432857D01*
X117526190Y-115851905D02*
X117907143Y-115851905D01*
X117907143Y-115051905D01*
X117526190Y-115051905D01*
X117373809Y-115928095D02*
X116764285Y-115928095D01*
X116611904Y-115813810D02*
X116497618Y-115851905D01*
X116307142Y-115851905D01*
X116230952Y-115813810D01*
X116192856Y-115775714D01*
X116154761Y-115699524D01*
X116154761Y-115623333D01*
X116192856Y-115547143D01*
X116230952Y-115509048D01*
X116307142Y-115470952D01*
X116459523Y-115432857D01*
X116535714Y-115394762D01*
X116573809Y-115356667D01*
X116611904Y-115280476D01*
X116611904Y-115204286D01*
X116573809Y-115128095D01*
X116535714Y-115090000D01*
X116459523Y-115051905D01*
X116269047Y-115051905D01*
X116154761Y-115090000D01*
X115811904Y-115432857D02*
X115545237Y-115432857D01*
X115430951Y-115851905D02*
X115811904Y-115851905D01*
X115811904Y-115051905D01*
X115430951Y-115051905D01*
X114707141Y-115851905D02*
X115088094Y-115851905D01*
X115088094Y-115051905D01*
X120040476Y-117201905D02*
X120497619Y-117201905D01*
X120269048Y-117201905D02*
X120269048Y-116401905D01*
X120345238Y-116516190D01*
X120421429Y-116592381D01*
X120497619Y-116630476D01*
X119697619Y-116897143D02*
X119088095Y-116897143D01*
X118745238Y-116478095D02*
X118707143Y-116440000D01*
X118630952Y-116401905D01*
X118440476Y-116401905D01*
X118364286Y-116440000D01*
X118326190Y-116478095D01*
X118288095Y-116554286D01*
X118288095Y-116630476D01*
X118326190Y-116744762D01*
X118783333Y-117201905D01*
X118288095Y-117201905D01*
X117335714Y-117201905D02*
X117335714Y-116401905D01*
X117069047Y-116973333D01*
X116802380Y-116401905D01*
X116802380Y-117201905D01*
X116116666Y-117163810D02*
X116192856Y-117201905D01*
X116345237Y-117201905D01*
X116421428Y-117163810D01*
X116459523Y-117087619D01*
X116459523Y-116782857D01*
X116421428Y-116706667D01*
X116345237Y-116668571D01*
X116192856Y-116668571D01*
X116116666Y-116706667D01*
X116078571Y-116782857D01*
X116078571Y-116859048D01*
X116459523Y-116935238D01*
X115773809Y-117163810D02*
X115697619Y-117201905D01*
X115545238Y-117201905D01*
X115469047Y-117163810D01*
X115430952Y-117087619D01*
X115430952Y-117049524D01*
X115469047Y-116973333D01*
X115545238Y-116935238D01*
X115659523Y-116935238D01*
X115735714Y-116897143D01*
X115773809Y-116820952D01*
X115773809Y-116782857D01*
X115735714Y-116706667D01*
X115659523Y-116668571D01*
X115545238Y-116668571D01*
X115469047Y-116706667D01*
X115126190Y-117163810D02*
X115050000Y-117201905D01*
X114897619Y-117201905D01*
X114821428Y-117163810D01*
X114783333Y-117087619D01*
X114783333Y-117049524D01*
X114821428Y-116973333D01*
X114897619Y-116935238D01*
X115011904Y-116935238D01*
X115088095Y-116897143D01*
X115126190Y-116820952D01*
X115126190Y-116782857D01*
X115088095Y-116706667D01*
X115011904Y-116668571D01*
X114897619Y-116668571D01*
X114821428Y-116706667D01*
X114440476Y-117201905D02*
X114440476Y-116668571D01*
X114440476Y-116401905D02*
X114478571Y-116440000D01*
X114440476Y-116478095D01*
X114402381Y-116440000D01*
X114440476Y-116401905D01*
X114440476Y-116478095D01*
X113716667Y-117201905D02*
X113716667Y-116782857D01*
X113754762Y-116706667D01*
X113830952Y-116668571D01*
X113983333Y-116668571D01*
X114059524Y-116706667D01*
X113716667Y-117163810D02*
X113792857Y-117201905D01*
X113983333Y-117201905D01*
X114059524Y-117163810D01*
X114097619Y-117087619D01*
X114097619Y-117011429D01*
X114059524Y-116935238D01*
X113983333Y-116897143D01*
X113792857Y-116897143D01*
X113716667Y-116859048D01*
X113335714Y-117201905D02*
X113335714Y-116401905D01*
X112992857Y-117201905D02*
X112992857Y-116782857D01*
X113030952Y-116706667D01*
X113107142Y-116668571D01*
X113221428Y-116668571D01*
X113297619Y-116706667D01*
X113335714Y-116744762D01*
X120497619Y-117828095D02*
X120459524Y-117790000D01*
X120383333Y-117751905D01*
X120192857Y-117751905D01*
X120116667Y-117790000D01*
X120078571Y-117828095D01*
X120040476Y-117904286D01*
X120040476Y-117980476D01*
X120078571Y-118094762D01*
X120535714Y-118551905D01*
X120040476Y-118551905D01*
X119697619Y-118247143D02*
X119088095Y-118247143D01*
X118783333Y-117751905D02*
X118288095Y-117751905D01*
X118554762Y-118056667D01*
X118440476Y-118056667D01*
X118364286Y-118094762D01*
X118326190Y-118132857D01*
X118288095Y-118209048D01*
X118288095Y-118399524D01*
X118326190Y-118475714D01*
X118364286Y-118513810D01*
X118440476Y-118551905D01*
X118669048Y-118551905D01*
X118745238Y-118513810D01*
X118783333Y-118475714D01*
X117335714Y-118551905D02*
X117335714Y-117751905D01*
X117145238Y-117751905D01*
X117030952Y-117790000D01*
X116954761Y-117866190D01*
X116916666Y-117942381D01*
X116878571Y-118094762D01*
X116878571Y-118209048D01*
X116916666Y-118361429D01*
X116954761Y-118437619D01*
X117030952Y-118513810D01*
X117145238Y-118551905D01*
X117335714Y-118551905D01*
X116192857Y-118018571D02*
X116192857Y-118551905D01*
X116535714Y-118018571D02*
X116535714Y-118437619D01*
X116497619Y-118513810D01*
X116421428Y-118551905D01*
X116307142Y-118551905D01*
X116230952Y-118513810D01*
X116192857Y-118475714D01*
X115469047Y-118551905D02*
X115469047Y-118132857D01*
X115507142Y-118056667D01*
X115583332Y-118018571D01*
X115735713Y-118018571D01*
X115811904Y-118056667D01*
X115469047Y-118513810D02*
X115545237Y-118551905D01*
X115735713Y-118551905D01*
X115811904Y-118513810D01*
X115849999Y-118437619D01*
X115849999Y-118361429D01*
X115811904Y-118285238D01*
X115735713Y-118247143D01*
X115545237Y-118247143D01*
X115469047Y-118209048D01*
X114973808Y-118551905D02*
X115049999Y-118513810D01*
X115088094Y-118437619D01*
X115088094Y-117751905D01*
X114097617Y-118513810D02*
X113983331Y-118551905D01*
X113792855Y-118551905D01*
X113716665Y-118513810D01*
X113678569Y-118475714D01*
X113640474Y-118399524D01*
X113640474Y-118323333D01*
X113678569Y-118247143D01*
X113716665Y-118209048D01*
X113792855Y-118170952D01*
X113945236Y-118132857D01*
X114021427Y-118094762D01*
X114059522Y-118056667D01*
X114097617Y-117980476D01*
X114097617Y-117904286D01*
X114059522Y-117828095D01*
X114021427Y-117790000D01*
X113945236Y-117751905D01*
X113754760Y-117751905D01*
X113640474Y-117790000D01*
X113297617Y-118551905D02*
X113297617Y-117751905D01*
X112916665Y-118551905D02*
X112916665Y-117751905D01*
X112726189Y-117751905D01*
X112611903Y-117790000D01*
X112535712Y-117866190D01*
X112497617Y-117942381D01*
X112459522Y-118094762D01*
X112459522Y-118209048D01*
X112497617Y-118361429D01*
X112535712Y-118437619D01*
X112611903Y-118513810D01*
X112726189Y-118551905D01*
X112916665Y-118551905D01*
D11*
X113030000Y-101600000D02*
X113665000Y-102235000D01*
X114935000Y-107315000D02*
X115570000Y-107315000D01*
X110490000Y-107315000D02*
X114935000Y-107315000D01*
X109855000Y-107950000D02*
X110490000Y-107315000D01*
X104775000Y-107950000D02*
X109855000Y-107950000D01*
X104140000Y-107315000D02*
X104775000Y-107950000D01*
X104140000Y-102235000D02*
X104140000Y-107315000D01*
X104775000Y-101600000D02*
X104140000Y-102235000D01*
X104775000Y-102235000D02*
X104775000Y-101600000D01*
X104775000Y-101600000D02*
X104775000Y-102235000D01*
X104140000Y-101600000D02*
X104775000Y-101600000D01*
X104775000Y-101600000D02*
X104140000Y-101600000D01*
X113030000Y-101600000D02*
X113030000Y-102235000D01*
X113030000Y-101600000D02*
X113665000Y-101600000D01*
D12*
X118770476Y-109455000D02*
X118846667Y-109416905D01*
X118960952Y-109416905D01*
X119075238Y-109455000D01*
X119151429Y-109531190D01*
X119189524Y-109607381D01*
X119227619Y-109759762D01*
X119227619Y-109874048D01*
X119189524Y-110026429D01*
X119151429Y-110102619D01*
X119075238Y-110178810D01*
X118960952Y-110216905D01*
X118884762Y-110216905D01*
X118770476Y-110178810D01*
X118732381Y-110140714D01*
X118732381Y-109874048D01*
X118884762Y-109874048D01*
X118389524Y-110216905D02*
X118389524Y-109683571D01*
X118389524Y-109835952D02*
X118351429Y-109759762D01*
X118313333Y-109721667D01*
X118237143Y-109683571D01*
X118160952Y-109683571D01*
X117780000Y-110216905D02*
X117856191Y-110178810D01*
X117894286Y-110140714D01*
X117932381Y-110064524D01*
X117932381Y-109835952D01*
X117894286Y-109759762D01*
X117856191Y-109721667D01*
X117780000Y-109683571D01*
X117665714Y-109683571D01*
X117589524Y-109721667D01*
X117551429Y-109759762D01*
X117513333Y-109835952D01*
X117513333Y-110064524D01*
X117551429Y-110140714D01*
X117589524Y-110178810D01*
X117665714Y-110216905D01*
X117780000Y-110216905D01*
X116827619Y-109683571D02*
X116827619Y-110216905D01*
X117170476Y-109683571D02*
X117170476Y-110102619D01*
X117132381Y-110178810D01*
X117056190Y-110216905D01*
X116941904Y-110216905D01*
X116865714Y-110178810D01*
X116827619Y-110140714D01*
X116446666Y-109683571D02*
X116446666Y-110216905D01*
X116446666Y-109759762D02*
X116408571Y-109721667D01*
X116332380Y-109683571D01*
X116218094Y-109683571D01*
X116141904Y-109721667D01*
X116103809Y-109797857D01*
X116103809Y-110216905D01*
X115379999Y-110216905D02*
X115379999Y-109416905D01*
X115379999Y-110178810D02*
X115456189Y-110216905D01*
X115608570Y-110216905D01*
X115684761Y-110178810D01*
X115722856Y-110140714D01*
X115760951Y-110064524D01*
X115760951Y-109835952D01*
X115722856Y-109759762D01*
X115684761Y-109721667D01*
X115608570Y-109683571D01*
X115456189Y-109683571D01*
X115379999Y-109721667D01*
X118732381Y-108946905D02*
X118999048Y-108565952D01*
X119189524Y-108946905D02*
X119189524Y-108146905D01*
X118884762Y-108146905D01*
X118808571Y-108185000D01*
X118770476Y-108223095D01*
X118732381Y-108299286D01*
X118732381Y-108413571D01*
X118770476Y-108489762D01*
X118808571Y-108527857D01*
X118884762Y-108565952D01*
X119189524Y-108565952D01*
X118389524Y-108946905D02*
X118389524Y-108413571D01*
X118389524Y-108146905D02*
X118427619Y-108185000D01*
X118389524Y-108223095D01*
X118351429Y-108185000D01*
X118389524Y-108146905D01*
X118389524Y-108223095D01*
X117665715Y-108413571D02*
X117665715Y-109061190D01*
X117703810Y-109137381D01*
X117741905Y-109175476D01*
X117818096Y-109213571D01*
X117932381Y-109213571D01*
X118008572Y-109175476D01*
X117665715Y-108908810D02*
X117741905Y-108946905D01*
X117894286Y-108946905D01*
X117970477Y-108908810D01*
X118008572Y-108870714D01*
X118046667Y-108794524D01*
X118046667Y-108565952D01*
X118008572Y-108489762D01*
X117970477Y-108451667D01*
X117894286Y-108413571D01*
X117741905Y-108413571D01*
X117665715Y-108451667D01*
X117284762Y-108946905D02*
X117284762Y-108146905D01*
X116941905Y-108946905D02*
X116941905Y-108527857D01*
X116980000Y-108451667D01*
X117056190Y-108413571D01*
X117170476Y-108413571D01*
X117246667Y-108451667D01*
X117284762Y-108489762D01*
X116675238Y-108413571D02*
X116370476Y-108413571D01*
X116560952Y-108146905D02*
X116560952Y-108832619D01*
X116522857Y-108908810D01*
X116446666Y-108946905D01*
X116370476Y-108946905D01*
X121132619Y-107368333D02*
X120751667Y-107368333D01*
X121208810Y-107596905D02*
X120942143Y-106796905D01*
X120675476Y-107596905D01*
X120408810Y-106796905D02*
X120408810Y-107444524D01*
X120370715Y-107520714D01*
X120332619Y-107558810D01*
X120256429Y-107596905D01*
X120104048Y-107596905D01*
X120027857Y-107558810D01*
X119989762Y-107520714D01*
X119951667Y-107444524D01*
X119951667Y-106796905D01*
X119570715Y-107596905D02*
X119570715Y-106796905D01*
X119380239Y-106796905D01*
X119265953Y-106835000D01*
X119189762Y-106911190D01*
X119151667Y-106987381D01*
X119113572Y-107139762D01*
X119113572Y-107254048D01*
X119151667Y-107406429D01*
X119189762Y-107482619D01*
X119265953Y-107558810D01*
X119380239Y-107596905D01*
X119570715Y-107596905D01*
X118961191Y-107673095D02*
X118351667Y-107673095D01*
X118008810Y-106796905D02*
X117856429Y-106796905D01*
X117780238Y-106835000D01*
X117704048Y-106911190D01*
X117665953Y-107063571D01*
X117665953Y-107330238D01*
X117704048Y-107482619D01*
X117780238Y-107558810D01*
X117856429Y-107596905D01*
X118008810Y-107596905D01*
X118085000Y-107558810D01*
X118161191Y-107482619D01*
X118199286Y-107330238D01*
X118199286Y-107063571D01*
X118161191Y-106911190D01*
X118085000Y-106835000D01*
X118008810Y-106796905D01*
X117323096Y-106796905D02*
X117323096Y-107444524D01*
X117285001Y-107520714D01*
X117246905Y-107558810D01*
X117170715Y-107596905D01*
X117018334Y-107596905D01*
X116942143Y-107558810D01*
X116904048Y-107520714D01*
X116865953Y-107444524D01*
X116865953Y-106796905D01*
X116599287Y-106796905D02*
X116142144Y-106796905D01*
X116370715Y-107596905D02*
X116370715Y-106796905D01*
X120675476Y-108946905D02*
X121132619Y-108946905D01*
X120904048Y-108946905D02*
X120904048Y-108146905D01*
X120980238Y-108261190D01*
X121056429Y-108337381D01*
X121132619Y-108375476D01*
X120332619Y-108642143D02*
X119723095Y-108642143D01*
X121132619Y-109573095D02*
X121094524Y-109535000D01*
X121018333Y-109496905D01*
X120827857Y-109496905D01*
X120751667Y-109535000D01*
X120713571Y-109573095D01*
X120675476Y-109649286D01*
X120675476Y-109725476D01*
X120713571Y-109839762D01*
X121170714Y-110296905D01*
X120675476Y-110296905D01*
X120332619Y-109992143D02*
X119723095Y-109992143D01*
X117284524Y-105136905D02*
X117284524Y-104336905D01*
X117094048Y-104336905D01*
X116979762Y-104375000D01*
X116903571Y-104451190D01*
X116865476Y-104527381D01*
X116827381Y-104679762D01*
X116827381Y-104794048D01*
X116865476Y-104946429D01*
X116903571Y-105022619D01*
X116979762Y-105098810D01*
X117094048Y-105136905D01*
X117284524Y-105136905D01*
X116484524Y-105136905D02*
X116484524Y-104603571D01*
X116484524Y-104336905D02*
X116522619Y-104375000D01*
X116484524Y-104413095D01*
X116446429Y-104375000D01*
X116484524Y-104336905D01*
X116484524Y-104413095D01*
X116141667Y-105098810D02*
X116065477Y-105136905D01*
X115913096Y-105136905D01*
X115836905Y-105098810D01*
X115798810Y-105022619D01*
X115798810Y-104984524D01*
X115836905Y-104908333D01*
X115913096Y-104870238D01*
X116027381Y-104870238D01*
X116103572Y-104832143D01*
X116141667Y-104755952D01*
X116141667Y-104717857D01*
X116103572Y-104641667D01*
X116027381Y-104603571D01*
X115913096Y-104603571D01*
X115836905Y-104641667D01*
X115455953Y-105060714D02*
X115417858Y-105098810D01*
X115455953Y-105136905D01*
X115494048Y-105098810D01*
X115455953Y-105060714D01*
X115455953Y-105136905D01*
X114503572Y-105098810D02*
X114389286Y-105136905D01*
X114198810Y-105136905D01*
X114122620Y-105098810D01*
X114084524Y-105060714D01*
X114046429Y-104984524D01*
X114046429Y-104908333D01*
X114084524Y-104832143D01*
X114122620Y-104794048D01*
X114198810Y-104755952D01*
X114351191Y-104717857D01*
X114427382Y-104679762D01*
X114465477Y-104641667D01*
X114503572Y-104565476D01*
X114503572Y-104489286D01*
X114465477Y-104413095D01*
X114427382Y-104375000D01*
X114351191Y-104336905D01*
X114160715Y-104336905D01*
X114046429Y-104375000D01*
X113703572Y-105136905D02*
X113703572Y-104336905D01*
X113322620Y-105136905D02*
X113322620Y-104336905D01*
X113132144Y-104336905D01*
X113017858Y-104375000D01*
X112941667Y-104451190D01*
X112903572Y-104527381D01*
X112865477Y-104679762D01*
X112865477Y-104794048D01*
X112903572Y-104946429D01*
X112941667Y-105022619D01*
X113017858Y-105098810D01*
X113132144Y-105136905D01*
X113322620Y-105136905D01*
X111951191Y-104603571D02*
X111379762Y-104603571D01*
X111722620Y-104260714D02*
X111951191Y-105289286D01*
X111455953Y-104946429D02*
X112027382Y-104946429D01*
X111684524Y-105289286D02*
X111455953Y-104260714D01*
X111151191Y-104413095D02*
X111113096Y-104375000D01*
X111036905Y-104336905D01*
X110846429Y-104336905D01*
X110770239Y-104375000D01*
X110732143Y-104413095D01*
X110694048Y-104489286D01*
X110694048Y-104565476D01*
X110732143Y-104679762D01*
X111189286Y-105136905D01*
X110694048Y-105136905D01*
X117360714Y-103066905D02*
X117170238Y-103866905D01*
X117017857Y-103295476D01*
X116865476Y-103866905D01*
X116675000Y-103066905D01*
X116370238Y-103866905D02*
X116370238Y-103333571D01*
X116370238Y-103066905D02*
X116408333Y-103105000D01*
X116370238Y-103143095D01*
X116332143Y-103105000D01*
X116370238Y-103066905D01*
X116370238Y-103143095D01*
X115989286Y-103866905D02*
X115989286Y-103333571D01*
X115989286Y-103485952D02*
X115951191Y-103409762D01*
X115913095Y-103371667D01*
X115836905Y-103333571D01*
X115760714Y-103333571D01*
X115189286Y-103828810D02*
X115265476Y-103866905D01*
X115417857Y-103866905D01*
X115494048Y-103828810D01*
X115532143Y-103752619D01*
X115532143Y-103447857D01*
X115494048Y-103371667D01*
X115417857Y-103333571D01*
X115265476Y-103333571D01*
X115189286Y-103371667D01*
X115151191Y-103447857D01*
X115151191Y-103524048D01*
X115532143Y-103600238D01*
X114313096Y-103333571D02*
X114008334Y-103333571D01*
X114198810Y-103066905D02*
X114198810Y-103752619D01*
X114160715Y-103828810D01*
X114084524Y-103866905D01*
X114008334Y-103866905D01*
X113627381Y-103866905D02*
X113703572Y-103828810D01*
X113741667Y-103790714D01*
X113779762Y-103714524D01*
X113779762Y-103485952D01*
X113741667Y-103409762D01*
X113703572Y-103371667D01*
X113627381Y-103333571D01*
X113513095Y-103333571D01*
X113436905Y-103371667D01*
X113398810Y-103409762D01*
X113360714Y-103485952D01*
X113360714Y-103714524D01*
X113398810Y-103790714D01*
X113436905Y-103828810D01*
X113513095Y-103866905D01*
X113627381Y-103866905D01*
X112408333Y-103866905D02*
X112408333Y-103066905D01*
X112141666Y-103638333D01*
X111874999Y-103066905D01*
X111874999Y-103866905D01*
X111227380Y-103447857D02*
X111113094Y-103485952D01*
X111074999Y-103524048D01*
X111036904Y-103600238D01*
X111036904Y-103714524D01*
X111074999Y-103790714D01*
X111113094Y-103828810D01*
X111189285Y-103866905D01*
X111494047Y-103866905D01*
X111494047Y-103066905D01*
X111227380Y-103066905D01*
X111151190Y-103105000D01*
X111113094Y-103143095D01*
X111074999Y-103219286D01*
X111074999Y-103295476D01*
X111113094Y-103371667D01*
X111151190Y-103409762D01*
X111227380Y-103447857D01*
X111494047Y-103447857D01*
X120002381Y-102440714D02*
X120040476Y-102478810D01*
X120154762Y-102516905D01*
X120230952Y-102516905D01*
X120345238Y-102478810D01*
X120421429Y-102402619D01*
X120459524Y-102326429D01*
X120497619Y-102174048D01*
X120497619Y-102059762D01*
X120459524Y-101907381D01*
X120421429Y-101831190D01*
X120345238Y-101755000D01*
X120230952Y-101716905D01*
X120154762Y-101716905D01*
X120040476Y-101755000D01*
X120002381Y-101793095D01*
X119697619Y-102478810D02*
X119583333Y-102516905D01*
X119392857Y-102516905D01*
X119316667Y-102478810D01*
X119278571Y-102440714D01*
X119240476Y-102364524D01*
X119240476Y-102288333D01*
X119278571Y-102212143D01*
X119316667Y-102174048D01*
X119392857Y-102135952D01*
X119545238Y-102097857D01*
X119621429Y-102059762D01*
X119659524Y-102021667D01*
X119697619Y-101945476D01*
X119697619Y-101869286D01*
X119659524Y-101793095D01*
X119621429Y-101755000D01*
X119545238Y-101716905D01*
X119354762Y-101716905D01*
X119240476Y-101755000D01*
X120650000Y-101579000D02*
X119088095Y-101579000D01*
X120040476Y-103866905D02*
X120497619Y-103866905D01*
X120269048Y-103866905D02*
X120269048Y-103066905D01*
X120345238Y-103181190D01*
X120421429Y-103257381D01*
X120497619Y-103295476D01*
X119697619Y-103562143D02*
X119088095Y-103562143D01*
X120040476Y-105216905D02*
X120497619Y-105216905D01*
X120269048Y-105216905D02*
X120269048Y-104416905D01*
X120345238Y-104531190D01*
X120421429Y-104607381D01*
X120497619Y-104645476D01*
X119697619Y-104912143D02*
X119088095Y-104912143D01*
X118745238Y-104493095D02*
X118707143Y-104455000D01*
X118630952Y-104416905D01*
X118440476Y-104416905D01*
X118364286Y-104455000D01*
X118326190Y-104493095D01*
X118288095Y-104569286D01*
X118288095Y-104645476D01*
X118326190Y-104759762D01*
X118783333Y-105216905D01*
X118288095Y-105216905D01*
X119536905Y-125628333D02*
X119536905Y-125475952D01*
X119575000Y-125399762D01*
X119613095Y-125361667D01*
X119727381Y-125285476D01*
X119879762Y-125247381D01*
X120184524Y-125247381D01*
X120260714Y-125285476D01*
X120298810Y-125323571D01*
X120336905Y-125399762D01*
X120336905Y-125552143D01*
X120298810Y-125628333D01*
X120260714Y-125666429D01*
X120184524Y-125704524D01*
X119994048Y-125704524D01*
X119917857Y-125666429D01*
X119879762Y-125628333D01*
X119841667Y-125552143D01*
X119841667Y-125399762D01*
X119879762Y-125323571D01*
X119917857Y-125285476D01*
X119994048Y-125247381D01*
X119536905Y-126428334D02*
X119536905Y-126047381D01*
X119917857Y-126009286D01*
X119879762Y-126047381D01*
X119841667Y-126123572D01*
X119841667Y-126314048D01*
X119879762Y-126390238D01*
X119917857Y-126428334D01*
X119994048Y-126466429D01*
X120184524Y-126466429D01*
X120260714Y-126428334D01*
X120298810Y-126390238D01*
X120336905Y-126314048D01*
X120336905Y-126123572D01*
X120298810Y-126047381D01*
X120260714Y-126009286D01*
X119879762Y-126923572D02*
X119841667Y-126847381D01*
X119803571Y-126809286D01*
X119727381Y-126771191D01*
X119689286Y-126771191D01*
X119613095Y-126809286D01*
X119575000Y-126847381D01*
X119536905Y-126923572D01*
X119536905Y-127075953D01*
X119575000Y-127152143D01*
X119613095Y-127190239D01*
X119689286Y-127228334D01*
X119727381Y-127228334D01*
X119803571Y-127190239D01*
X119841667Y-127152143D01*
X119879762Y-127075953D01*
X119879762Y-126923572D01*
X119917857Y-126847381D01*
X119955952Y-126809286D01*
X120032143Y-126771191D01*
X120184524Y-126771191D01*
X120260714Y-126809286D01*
X120298810Y-126847381D01*
X120336905Y-126923572D01*
X120336905Y-127075953D01*
X120298810Y-127152143D01*
X120260714Y-127190239D01*
X120184524Y-127228334D01*
X120032143Y-127228334D01*
X119955952Y-127190239D01*
X119917857Y-127152143D01*
X119879762Y-127075953D01*
X120336905Y-127990239D02*
X120336905Y-127533096D01*
X120336905Y-127761667D02*
X119536905Y-127761667D01*
X119651190Y-127685477D01*
X119727381Y-127609286D01*
X119765476Y-127533096D01*
X120260714Y-129399763D02*
X120298810Y-129361668D01*
X120336905Y-129247382D01*
X120336905Y-129171192D01*
X120298810Y-129056906D01*
X120222619Y-128980715D01*
X120146429Y-128942620D01*
X119994048Y-128904525D01*
X119879762Y-128904525D01*
X119727381Y-128942620D01*
X119651190Y-128980715D01*
X119575000Y-129056906D01*
X119536905Y-129171192D01*
X119536905Y-129247382D01*
X119575000Y-129361668D01*
X119613095Y-129399763D01*
X119536905Y-129666430D02*
X119536905Y-130199763D01*
X120336905Y-129856906D01*
X119536905Y-130656906D02*
X119536905Y-130733097D01*
X119575000Y-130809287D01*
X119613095Y-130847382D01*
X119689286Y-130885478D01*
X119841667Y-130923573D01*
X120032143Y-130923573D01*
X120184524Y-130885478D01*
X120260714Y-130847382D01*
X120298810Y-130809287D01*
X120336905Y-130733097D01*
X120336905Y-130656906D01*
X120298810Y-130580716D01*
X120260714Y-130542620D01*
X120184524Y-130504525D01*
X120032143Y-130466430D01*
X119841667Y-130466430D01*
X119689286Y-130504525D01*
X119613095Y-130542620D01*
X119575000Y-130580716D01*
X119536905Y-130656906D01*
X119498810Y-131837859D02*
X120527381Y-131152144D01*
X120260714Y-132561668D02*
X120298810Y-132523573D01*
X120336905Y-132409287D01*
X120336905Y-132333097D01*
X120298810Y-132218811D01*
X120222619Y-132142620D01*
X120146429Y-132104525D01*
X119994048Y-132066430D01*
X119879762Y-132066430D01*
X119727381Y-132104525D01*
X119651190Y-132142620D01*
X119575000Y-132218811D01*
X119536905Y-132333097D01*
X119536905Y-132409287D01*
X119575000Y-132523573D01*
X119613095Y-132561668D01*
X119536905Y-132828335D02*
X119536905Y-133361668D01*
X120336905Y-133018811D01*
X120336905Y-134085478D02*
X120336905Y-133628335D01*
X120336905Y-133856906D02*
X119536905Y-133856906D01*
X119651190Y-133780716D01*
X119727381Y-133704525D01*
X119765476Y-133628335D01*
X120260714Y-134428335D02*
X120298810Y-134466430D01*
X120336905Y-134428335D01*
X120298810Y-134390240D01*
X120260714Y-134428335D01*
X120336905Y-134428335D01*
X119841667Y-134428335D02*
X119879762Y-134466430D01*
X119917857Y-134428335D01*
X119879762Y-134390240D01*
X119841667Y-134428335D01*
X119917857Y-134428335D01*
X119803571Y-135761668D02*
X120336905Y-135761668D01*
X119498810Y-135571192D02*
X120070238Y-135380716D01*
X120070238Y-135875954D01*
X119536905Y-136104526D02*
X119536905Y-136637859D01*
X120336905Y-136295002D01*
X119536905Y-137095002D02*
X119536905Y-137171193D01*
X119575000Y-137247383D01*
X119613095Y-137285478D01*
X119689286Y-137323574D01*
X119841667Y-137361669D01*
X120032143Y-137361669D01*
X120184524Y-137323574D01*
X120260714Y-137285478D01*
X120298810Y-137247383D01*
X120336905Y-137171193D01*
X120336905Y-137095002D01*
X120298810Y-137018812D01*
X120260714Y-136980716D01*
X120184524Y-136942621D01*
X120032143Y-136904526D01*
X119841667Y-136904526D01*
X119689286Y-136942621D01*
X119613095Y-136980716D01*
X119575000Y-137018812D01*
X119536905Y-137095002D01*
X120336905Y-137704526D02*
X119536905Y-137704526D01*
X119536905Y-138009288D01*
X119575000Y-138085479D01*
X119613095Y-138123574D01*
X119689286Y-138161669D01*
X119803571Y-138161669D01*
X119879762Y-138123574D01*
X119917857Y-138085479D01*
X119955952Y-138009288D01*
X119955952Y-137704526D01*
X119917857Y-138771193D02*
X119917857Y-138504526D01*
X120336905Y-138504526D02*
X119536905Y-138504526D01*
X119536905Y-138885479D01*
X121229762Y-125399762D02*
X121191667Y-125323571D01*
X121153571Y-125285476D01*
X121077381Y-125247381D01*
X121039286Y-125247381D01*
X120963095Y-125285476D01*
X120925000Y-125323571D01*
X120886905Y-125399762D01*
X120886905Y-125552143D01*
X120925000Y-125628333D01*
X120963095Y-125666429D01*
X121039286Y-125704524D01*
X121077381Y-125704524D01*
X121153571Y-125666429D01*
X121191667Y-125628333D01*
X121229762Y-125552143D01*
X121229762Y-125399762D01*
X121267857Y-125323571D01*
X121305952Y-125285476D01*
X121382143Y-125247381D01*
X121534524Y-125247381D01*
X121610714Y-125285476D01*
X121648810Y-125323571D01*
X121686905Y-125399762D01*
X121686905Y-125552143D01*
X121648810Y-125628333D01*
X121610714Y-125666429D01*
X121534524Y-125704524D01*
X121382143Y-125704524D01*
X121305952Y-125666429D01*
X121267857Y-125628333D01*
X121229762Y-125552143D01*
X120886905Y-126428334D02*
X120886905Y-126047381D01*
X121267857Y-126009286D01*
X121229762Y-126047381D01*
X121191667Y-126123572D01*
X121191667Y-126314048D01*
X121229762Y-126390238D01*
X121267857Y-126428334D01*
X121344048Y-126466429D01*
X121534524Y-126466429D01*
X121610714Y-126428334D01*
X121648810Y-126390238D01*
X121686905Y-126314048D01*
X121686905Y-126123572D01*
X121648810Y-126047381D01*
X121610714Y-126009286D01*
X121229762Y-126923572D02*
X121191667Y-126847381D01*
X121153571Y-126809286D01*
X121077381Y-126771191D01*
X121039286Y-126771191D01*
X120963095Y-126809286D01*
X120925000Y-126847381D01*
X120886905Y-126923572D01*
X120886905Y-127075953D01*
X120925000Y-127152143D01*
X120963095Y-127190239D01*
X121039286Y-127228334D01*
X121077381Y-127228334D01*
X121153571Y-127190239D01*
X121191667Y-127152143D01*
X121229762Y-127075953D01*
X121229762Y-126923572D01*
X121267857Y-126847381D01*
X121305952Y-126809286D01*
X121382143Y-126771191D01*
X121534524Y-126771191D01*
X121610714Y-126809286D01*
X121648810Y-126847381D01*
X121686905Y-126923572D01*
X121686905Y-127075953D01*
X121648810Y-127152143D01*
X121610714Y-127190239D01*
X121534524Y-127228334D01*
X121382143Y-127228334D01*
X121305952Y-127190239D01*
X121267857Y-127152143D01*
X121229762Y-127075953D01*
X120886905Y-127723572D02*
X120886905Y-127799763D01*
X120925000Y-127875953D01*
X120963095Y-127914048D01*
X121039286Y-127952144D01*
X121191667Y-127990239D01*
X121382143Y-127990239D01*
X121534524Y-127952144D01*
X121610714Y-127914048D01*
X121648810Y-127875953D01*
X121686905Y-127799763D01*
X121686905Y-127723572D01*
X121648810Y-127647382D01*
X121610714Y-127609286D01*
X121534524Y-127571191D01*
X121382143Y-127533096D01*
X121191667Y-127533096D01*
X121039286Y-127571191D01*
X120963095Y-127609286D01*
X120925000Y-127647382D01*
X120886905Y-127723572D01*
X121610714Y-129399763D02*
X121648810Y-129361668D01*
X121686905Y-129247382D01*
X121686905Y-129171192D01*
X121648810Y-129056906D01*
X121572619Y-128980715D01*
X121496429Y-128942620D01*
X121344048Y-128904525D01*
X121229762Y-128904525D01*
X121077381Y-128942620D01*
X121001190Y-128980715D01*
X120925000Y-129056906D01*
X120886905Y-129171192D01*
X120886905Y-129247382D01*
X120925000Y-129361668D01*
X120963095Y-129399763D01*
X120886905Y-129666430D02*
X120886905Y-130199763D01*
X121686905Y-129856906D01*
X120886905Y-130656906D02*
X120886905Y-130733097D01*
X120925000Y-130809287D01*
X120963095Y-130847382D01*
X121039286Y-130885478D01*
X121191667Y-130923573D01*
X121382143Y-130923573D01*
X121534524Y-130885478D01*
X121610714Y-130847382D01*
X121648810Y-130809287D01*
X121686905Y-130733097D01*
X121686905Y-130656906D01*
X121648810Y-130580716D01*
X121610714Y-130542620D01*
X121534524Y-130504525D01*
X121382143Y-130466430D01*
X121191667Y-130466430D01*
X121039286Y-130504525D01*
X120963095Y-130542620D01*
X120925000Y-130580716D01*
X120886905Y-130656906D01*
X120848810Y-131837859D02*
X121877381Y-131152144D01*
X121610714Y-132561668D02*
X121648810Y-132523573D01*
X121686905Y-132409287D01*
X121686905Y-132333097D01*
X121648810Y-132218811D01*
X121572619Y-132142620D01*
X121496429Y-132104525D01*
X121344048Y-132066430D01*
X121229762Y-132066430D01*
X121077381Y-132104525D01*
X121001190Y-132142620D01*
X120925000Y-132218811D01*
X120886905Y-132333097D01*
X120886905Y-132409287D01*
X120925000Y-132523573D01*
X120963095Y-132561668D01*
X120886905Y-132828335D02*
X120886905Y-133361668D01*
X121686905Y-133018811D01*
X121686905Y-134085478D02*
X121686905Y-133628335D01*
X121686905Y-133856906D02*
X120886905Y-133856906D01*
X121001190Y-133780716D01*
X121077381Y-133704525D01*
X121115476Y-133628335D01*
X121610714Y-134428335D02*
X121648810Y-134466430D01*
X121686905Y-134428335D01*
X121648810Y-134390240D01*
X121610714Y-134428335D01*
X121686905Y-134428335D01*
X121191667Y-134428335D02*
X121229762Y-134466430D01*
X121267857Y-134428335D01*
X121229762Y-134390240D01*
X121191667Y-134428335D01*
X121267857Y-134428335D01*
X120963095Y-135380716D02*
X120925000Y-135418811D01*
X120886905Y-135495002D01*
X120886905Y-135685478D01*
X120925000Y-135761668D01*
X120963095Y-135799764D01*
X121039286Y-135837859D01*
X121115476Y-135837859D01*
X121229762Y-135799764D01*
X121686905Y-135342621D01*
X121686905Y-135837859D01*
X120963095Y-136142621D02*
X120925000Y-136180716D01*
X120886905Y-136256907D01*
X120886905Y-136447383D01*
X120925000Y-136523573D01*
X120963095Y-136561669D01*
X121039286Y-136599764D01*
X121115476Y-136599764D01*
X121229762Y-136561669D01*
X121686905Y-136104526D01*
X121686905Y-136599764D01*
X121153571Y-136942621D02*
X121686905Y-136942621D01*
X121229762Y-136942621D02*
X121191667Y-136980716D01*
X121153571Y-137056907D01*
X121153571Y-137171193D01*
X121191667Y-137247383D01*
X121267857Y-137285478D01*
X121686905Y-137285478D01*
X121267857Y-137933098D02*
X121267857Y-137666431D01*
X121686905Y-137666431D02*
X120886905Y-137666431D01*
X120886905Y-138047384D01*
D13*
X111573571Y-127008571D02*
X113073571Y-127365714D01*
X112002143Y-127651428D01*
X113073571Y-127937142D01*
X111573571Y-128294285D01*
X112645000Y-128794285D02*
X112645000Y-129508571D01*
X113073571Y-128651428D02*
X111573571Y-129151428D01*
X113073571Y-129651428D01*
X113073571Y-131008571D02*
X112359286Y-130508571D01*
X113073571Y-130151428D02*
X111573571Y-130151428D01*
X111573571Y-130722856D01*
X111645000Y-130865714D01*
X111716429Y-130937142D01*
X111859286Y-131008571D01*
X112073571Y-131008571D01*
X112216429Y-130937142D01*
X112287857Y-130865714D01*
X112359286Y-130722856D01*
X112359286Y-130151428D01*
X113073571Y-131651428D02*
X111573571Y-131651428D01*
X113073571Y-132508571D01*
X111573571Y-132508571D01*
X113073571Y-133222857D02*
X111573571Y-133222857D01*
X113073571Y-133937143D02*
X111573571Y-133937143D01*
X113073571Y-134794286D01*
X111573571Y-134794286D01*
X111645000Y-136294286D02*
X111573571Y-136151429D01*
X111573571Y-135937143D01*
X111645000Y-135722858D01*
X111787857Y-135580000D01*
X111930714Y-135508572D01*
X112216429Y-135437143D01*
X112430714Y-135437143D01*
X112716429Y-135508572D01*
X112859286Y-135580000D01*
X113002143Y-135722858D01*
X113073571Y-135937143D01*
X113073571Y-136080000D01*
X113002143Y-136294286D01*
X112930714Y-136365715D01*
X112430714Y-136365715D01*
X112430714Y-136080000D01*
X112930714Y-137008572D02*
X113002143Y-137080000D01*
X113073571Y-137008572D01*
X113002143Y-136937143D01*
X112930714Y-137008572D01*
X113073571Y-137008572D01*
X112502143Y-137008572D02*
X111645000Y-136937143D01*
X111573571Y-137008572D01*
X111645000Y-137080000D01*
X112502143Y-137008572D01*
X111573571Y-137008572D01*
D12*
X115178810Y-125413332D02*
X115216905Y-125527618D01*
X115216905Y-125718094D01*
X115178810Y-125794284D01*
X115140714Y-125832380D01*
X115064524Y-125870475D01*
X114988333Y-125870475D01*
X114912143Y-125832380D01*
X114874048Y-125794284D01*
X114835952Y-125718094D01*
X114797857Y-125565713D01*
X114759762Y-125489522D01*
X114721667Y-125451427D01*
X114645476Y-125413332D01*
X114569286Y-125413332D01*
X114493095Y-125451427D01*
X114455000Y-125489522D01*
X114416905Y-125565713D01*
X114416905Y-125756189D01*
X114455000Y-125870475D01*
X115216905Y-126213332D02*
X114416905Y-126213332D01*
X115216905Y-126594284D02*
X114416905Y-126594284D01*
X114416905Y-126784760D01*
X114455000Y-126899046D01*
X114531190Y-126975237D01*
X114607381Y-127013332D01*
X114759762Y-127051427D01*
X114874048Y-127051427D01*
X115026429Y-127013332D01*
X115102619Y-126975237D01*
X115178810Y-126899046D01*
X115216905Y-126784760D01*
X115216905Y-126594284D01*
X115178810Y-127356189D02*
X115216905Y-127432379D01*
X115216905Y-127584760D01*
X115178810Y-127660951D01*
X115102619Y-127699046D01*
X115064524Y-127699046D01*
X114988333Y-127660951D01*
X114950238Y-127584760D01*
X114950238Y-127470475D01*
X114912143Y-127394284D01*
X114835952Y-127356189D01*
X114797857Y-127356189D01*
X114721667Y-127394284D01*
X114683571Y-127470475D01*
X114683571Y-127584760D01*
X114721667Y-127660951D01*
X115216905Y-128651427D02*
X114683571Y-128651427D01*
X114759762Y-128651427D02*
X114721667Y-128689522D01*
X114683571Y-128765713D01*
X114683571Y-128879999D01*
X114721667Y-128956189D01*
X114797857Y-128994284D01*
X115216905Y-128994284D01*
X114797857Y-128994284D02*
X114721667Y-129032380D01*
X114683571Y-129108570D01*
X114683571Y-129222856D01*
X114721667Y-129299046D01*
X114797857Y-129337141D01*
X115216905Y-129337141D01*
X114683571Y-130060951D02*
X115216905Y-130060951D01*
X114683571Y-129718094D02*
X115102619Y-129718094D01*
X115178810Y-129756189D01*
X115216905Y-129832380D01*
X115216905Y-129946666D01*
X115178810Y-130022856D01*
X115140714Y-130060951D01*
X115178810Y-130403809D02*
X115216905Y-130479999D01*
X115216905Y-130632380D01*
X115178810Y-130708571D01*
X115102619Y-130746666D01*
X115064524Y-130746666D01*
X114988333Y-130708571D01*
X114950238Y-130632380D01*
X114950238Y-130518095D01*
X114912143Y-130441904D01*
X114835952Y-130403809D01*
X114797857Y-130403809D01*
X114721667Y-130441904D01*
X114683571Y-130518095D01*
X114683571Y-130632380D01*
X114721667Y-130708571D01*
X114683571Y-130975237D02*
X114683571Y-131279999D01*
X114416905Y-131089523D02*
X115102619Y-131089523D01*
X115178810Y-131127618D01*
X115216905Y-131203809D01*
X115216905Y-131279999D01*
X115216905Y-132156190D02*
X114416905Y-132156190D01*
X114721667Y-132156190D02*
X114683571Y-132232381D01*
X114683571Y-132384762D01*
X114721667Y-132460952D01*
X114759762Y-132499047D01*
X114835952Y-132537143D01*
X115064524Y-132537143D01*
X115140714Y-132499047D01*
X115178810Y-132460952D01*
X115216905Y-132384762D01*
X115216905Y-132232381D01*
X115178810Y-132156190D01*
X115178810Y-133184762D02*
X115216905Y-133108572D01*
X115216905Y-132956191D01*
X115178810Y-132880000D01*
X115102619Y-132841905D01*
X114797857Y-132841905D01*
X114721667Y-132880000D01*
X114683571Y-132956191D01*
X114683571Y-133108572D01*
X114721667Y-133184762D01*
X114797857Y-133222857D01*
X114874048Y-133222857D01*
X114950238Y-132841905D01*
X115216905Y-134289524D02*
X115178810Y-134213333D01*
X115140714Y-134175238D01*
X115064524Y-134137143D01*
X114835952Y-134137143D01*
X114759762Y-134175238D01*
X114721667Y-134213333D01*
X114683571Y-134289524D01*
X114683571Y-134403810D01*
X114721667Y-134480000D01*
X114759762Y-134518095D01*
X114835952Y-134556191D01*
X115064524Y-134556191D01*
X115140714Y-134518095D01*
X115178810Y-134480000D01*
X115216905Y-134403810D01*
X115216905Y-134289524D01*
X114683571Y-134784762D02*
X114683571Y-135089524D01*
X115216905Y-134899048D02*
X114531190Y-134899048D01*
X114455000Y-134937143D01*
X114416905Y-135013334D01*
X114416905Y-135089524D01*
X115178810Y-135927620D02*
X115216905Y-136003810D01*
X115216905Y-136156191D01*
X115178810Y-136232382D01*
X115102619Y-136270477D01*
X115064524Y-136270477D01*
X114988333Y-136232382D01*
X114950238Y-136156191D01*
X114950238Y-136041906D01*
X114912143Y-135965715D01*
X114835952Y-135927620D01*
X114797857Y-135927620D01*
X114721667Y-135965715D01*
X114683571Y-136041906D01*
X114683571Y-136156191D01*
X114721667Y-136232382D01*
X115216905Y-136956191D02*
X114797857Y-136956191D01*
X114721667Y-136918096D01*
X114683571Y-136841906D01*
X114683571Y-136689525D01*
X114721667Y-136613334D01*
X115178810Y-136956191D02*
X115216905Y-136880001D01*
X115216905Y-136689525D01*
X115178810Y-136613334D01*
X115102619Y-136575239D01*
X115026429Y-136575239D01*
X114950238Y-136613334D01*
X114912143Y-136689525D01*
X114912143Y-136880001D01*
X114874048Y-136956191D01*
X115216905Y-137337144D02*
X114683571Y-137337144D01*
X114759762Y-137337144D02*
X114721667Y-137375239D01*
X114683571Y-137451430D01*
X114683571Y-137565716D01*
X114721667Y-137641906D01*
X114797857Y-137680001D01*
X115216905Y-137680001D01*
X114797857Y-137680001D02*
X114721667Y-137718097D01*
X114683571Y-137794287D01*
X114683571Y-137908573D01*
X114721667Y-137984763D01*
X114797857Y-138022858D01*
X115216905Y-138022858D01*
X115178810Y-138708573D02*
X115216905Y-138632383D01*
X115216905Y-138480002D01*
X115178810Y-138403811D01*
X115102619Y-138365716D01*
X114797857Y-138365716D01*
X114721667Y-138403811D01*
X114683571Y-138480002D01*
X114683571Y-138632383D01*
X114721667Y-138708573D01*
X114797857Y-138746668D01*
X114874048Y-138746668D01*
X114950238Y-138365716D01*
X116033571Y-127394284D02*
X116033571Y-127699046D01*
X115766905Y-127508570D02*
X116452619Y-127508570D01*
X116528810Y-127546665D01*
X116566905Y-127622856D01*
X116566905Y-127699046D01*
X116033571Y-127889523D02*
X116566905Y-128079999D01*
X116033571Y-128270475D02*
X116566905Y-128079999D01*
X116757381Y-128003808D01*
X116795476Y-127965713D01*
X116833571Y-127889523D01*
X116033571Y-128575237D02*
X116833571Y-128575237D01*
X116071667Y-128575237D02*
X116033571Y-128651428D01*
X116033571Y-128803809D01*
X116071667Y-128879999D01*
X116109762Y-128918094D01*
X116185952Y-128956190D01*
X116414524Y-128956190D01*
X116490714Y-128918094D01*
X116528810Y-128879999D01*
X116566905Y-128803809D01*
X116566905Y-128651428D01*
X116528810Y-128575237D01*
X116528810Y-129603809D02*
X116566905Y-129527619D01*
X116566905Y-129375238D01*
X116528810Y-129299047D01*
X116452619Y-129260952D01*
X116147857Y-129260952D01*
X116071667Y-129299047D01*
X116033571Y-129375238D01*
X116033571Y-129527619D01*
X116071667Y-129603809D01*
X116147857Y-129641904D01*
X116224048Y-129641904D01*
X116300238Y-129260952D01*
X116566905Y-130937142D02*
X116147857Y-130937142D01*
X116071667Y-130899047D01*
X116033571Y-130822857D01*
X116033571Y-130670476D01*
X116071667Y-130594285D01*
X116528810Y-130937142D02*
X116566905Y-130860952D01*
X116566905Y-130670476D01*
X116528810Y-130594285D01*
X116452619Y-130556190D01*
X116376429Y-130556190D01*
X116300238Y-130594285D01*
X116262143Y-130670476D01*
X116262143Y-130860952D01*
X116224048Y-130937142D01*
X116033571Y-131318095D02*
X116566905Y-131318095D01*
X116109762Y-131318095D02*
X116071667Y-131356190D01*
X116033571Y-131432381D01*
X116033571Y-131546667D01*
X116071667Y-131622857D01*
X116147857Y-131660952D01*
X116566905Y-131660952D01*
X116566905Y-132384762D02*
X115766905Y-132384762D01*
X116528810Y-132384762D02*
X116566905Y-132308572D01*
X116566905Y-132156191D01*
X116528810Y-132080000D01*
X116490714Y-132041905D01*
X116414524Y-132003810D01*
X116185952Y-132003810D01*
X116109762Y-132041905D01*
X116071667Y-132080000D01*
X116033571Y-132156191D01*
X116033571Y-132308572D01*
X116071667Y-132384762D01*
X116566905Y-133375239D02*
X116033571Y-133375239D01*
X116109762Y-133375239D02*
X116071667Y-133413334D01*
X116033571Y-133489525D01*
X116033571Y-133603811D01*
X116071667Y-133680001D01*
X116147857Y-133718096D01*
X116566905Y-133718096D01*
X116147857Y-133718096D02*
X116071667Y-133756192D01*
X116033571Y-133832382D01*
X116033571Y-133946668D01*
X116071667Y-134022858D01*
X116147857Y-134060953D01*
X116566905Y-134060953D01*
X116566905Y-134784763D02*
X116147857Y-134784763D01*
X116071667Y-134746668D01*
X116033571Y-134670478D01*
X116033571Y-134518097D01*
X116071667Y-134441906D01*
X116528810Y-134784763D02*
X116566905Y-134708573D01*
X116566905Y-134518097D01*
X116528810Y-134441906D01*
X116452619Y-134403811D01*
X116376429Y-134403811D01*
X116300238Y-134441906D01*
X116262143Y-134518097D01*
X116262143Y-134708573D01*
X116224048Y-134784763D01*
X116033571Y-135051430D02*
X116033571Y-135356192D01*
X115766905Y-135165716D02*
X116452619Y-135165716D01*
X116528810Y-135203811D01*
X116566905Y-135280002D01*
X116566905Y-135356192D01*
X116528810Y-135965716D02*
X116566905Y-135889526D01*
X116566905Y-135737145D01*
X116528810Y-135660954D01*
X116490714Y-135622859D01*
X116414524Y-135584764D01*
X116185952Y-135584764D01*
X116109762Y-135622859D01*
X116071667Y-135660954D01*
X116033571Y-135737145D01*
X116033571Y-135889526D01*
X116071667Y-135965716D01*
X116566905Y-136308573D02*
X115766905Y-136308573D01*
X116566905Y-136651430D02*
X116147857Y-136651430D01*
X116071667Y-136613335D01*
X116033571Y-136537145D01*
X116033571Y-136422859D01*
X116071667Y-136346668D01*
X116109762Y-136308573D01*
X117916905Y-125832379D02*
X117383571Y-125832379D01*
X117459762Y-125832379D02*
X117421667Y-125870474D01*
X117383571Y-125946665D01*
X117383571Y-126060951D01*
X117421667Y-126137141D01*
X117497857Y-126175236D01*
X117916905Y-126175236D01*
X117497857Y-126175236D02*
X117421667Y-126213332D01*
X117383571Y-126289522D01*
X117383571Y-126403808D01*
X117421667Y-126479998D01*
X117497857Y-126518093D01*
X117916905Y-126518093D01*
X117916905Y-127013332D02*
X117878810Y-126937141D01*
X117840714Y-126899046D01*
X117764524Y-126860951D01*
X117535952Y-126860951D01*
X117459762Y-126899046D01*
X117421667Y-126937141D01*
X117383571Y-127013332D01*
X117383571Y-127127618D01*
X117421667Y-127203808D01*
X117459762Y-127241903D01*
X117535952Y-127279999D01*
X117764524Y-127279999D01*
X117840714Y-127241903D01*
X117878810Y-127203808D01*
X117916905Y-127127618D01*
X117916905Y-127013332D01*
X117383571Y-127508570D02*
X117383571Y-127813332D01*
X117116905Y-127622856D02*
X117802619Y-127622856D01*
X117878810Y-127660951D01*
X117916905Y-127737142D01*
X117916905Y-127813332D01*
X117916905Y-128079999D02*
X117116905Y-128079999D01*
X117916905Y-128422856D02*
X117497857Y-128422856D01*
X117421667Y-128384761D01*
X117383571Y-128308571D01*
X117383571Y-128194285D01*
X117421667Y-128118094D01*
X117459762Y-128079999D01*
X117878810Y-129108571D02*
X117916905Y-129032381D01*
X117916905Y-128880000D01*
X117878810Y-128803809D01*
X117802619Y-128765714D01*
X117497857Y-128765714D01*
X117421667Y-128803809D01*
X117383571Y-128880000D01*
X117383571Y-129032381D01*
X117421667Y-129108571D01*
X117497857Y-129146666D01*
X117574048Y-129146666D01*
X117650238Y-128765714D01*
X117916905Y-129489523D02*
X117383571Y-129489523D01*
X117535952Y-129489523D02*
X117459762Y-129527618D01*
X117421667Y-129565714D01*
X117383571Y-129641904D01*
X117383571Y-129718095D01*
X117916905Y-129984761D02*
X117116905Y-129984761D01*
X117421667Y-129984761D02*
X117383571Y-130060952D01*
X117383571Y-130213333D01*
X117421667Y-130289523D01*
X117459762Y-130327618D01*
X117535952Y-130365714D01*
X117764524Y-130365714D01*
X117840714Y-130327618D01*
X117878810Y-130289523D01*
X117916905Y-130213333D01*
X117916905Y-130060952D01*
X117878810Y-129984761D01*
X117916905Y-130822857D02*
X117878810Y-130746666D01*
X117840714Y-130708571D01*
X117764524Y-130670476D01*
X117535952Y-130670476D01*
X117459762Y-130708571D01*
X117421667Y-130746666D01*
X117383571Y-130822857D01*
X117383571Y-130937143D01*
X117421667Y-131013333D01*
X117459762Y-131051428D01*
X117535952Y-131089524D01*
X117764524Y-131089524D01*
X117840714Y-131051428D01*
X117878810Y-131013333D01*
X117916905Y-130937143D01*
X117916905Y-130822857D01*
X117916905Y-131775238D02*
X117497857Y-131775238D01*
X117421667Y-131737143D01*
X117383571Y-131660953D01*
X117383571Y-131508572D01*
X117421667Y-131432381D01*
X117878810Y-131775238D02*
X117916905Y-131699048D01*
X117916905Y-131508572D01*
X117878810Y-131432381D01*
X117802619Y-131394286D01*
X117726429Y-131394286D01*
X117650238Y-131432381D01*
X117612143Y-131508572D01*
X117612143Y-131699048D01*
X117574048Y-131775238D01*
X117916905Y-132156191D02*
X117383571Y-132156191D01*
X117535952Y-132156191D02*
X117459762Y-132194286D01*
X117421667Y-132232382D01*
X117383571Y-132308572D01*
X117383571Y-132384763D01*
X117916905Y-132994286D02*
X117116905Y-132994286D01*
X117878810Y-132994286D02*
X117916905Y-132918096D01*
X117916905Y-132765715D01*
X117878810Y-132689524D01*
X117840714Y-132651429D01*
X117764524Y-132613334D01*
X117535952Y-132613334D01*
X117459762Y-132651429D01*
X117421667Y-132689524D01*
X117383571Y-132765715D01*
X117383571Y-132918096D01*
X117421667Y-132994286D01*
X117383571Y-133908573D02*
X117916905Y-134099049D01*
X117383571Y-134289525D01*
X117916905Y-134708573D02*
X117878810Y-134632382D01*
X117840714Y-134594287D01*
X117764524Y-134556192D01*
X117535952Y-134556192D01*
X117459762Y-134594287D01*
X117421667Y-134632382D01*
X117383571Y-134708573D01*
X117383571Y-134822859D01*
X117421667Y-134899049D01*
X117459762Y-134937144D01*
X117535952Y-134975240D01*
X117764524Y-134975240D01*
X117840714Y-134937144D01*
X117878810Y-134899049D01*
X117916905Y-134822859D01*
X117916905Y-134708573D01*
X117916905Y-135432383D02*
X117878810Y-135356192D01*
X117802619Y-135318097D01*
X117116905Y-135318097D01*
X117383571Y-135622859D02*
X117383571Y-135927621D01*
X117116905Y-135737145D02*
X117802619Y-135737145D01*
X117878810Y-135775240D01*
X117916905Y-135851431D01*
X117916905Y-135927621D01*
X117916905Y-136537145D02*
X117497857Y-136537145D01*
X117421667Y-136499050D01*
X117383571Y-136422860D01*
X117383571Y-136270479D01*
X117421667Y-136194288D01*
X117878810Y-136537145D02*
X117916905Y-136460955D01*
X117916905Y-136270479D01*
X117878810Y-136194288D01*
X117802619Y-136156193D01*
X117726429Y-136156193D01*
X117650238Y-136194288D01*
X117612143Y-136270479D01*
X117612143Y-136460955D01*
X117574048Y-136537145D01*
X117383571Y-137260955D02*
X118031190Y-137260955D01*
X118107381Y-137222860D01*
X118145476Y-137184765D01*
X118183571Y-137108574D01*
X118183571Y-136994289D01*
X118145476Y-136918098D01*
X117878810Y-137260955D02*
X117916905Y-137184765D01*
X117916905Y-137032384D01*
X117878810Y-136956193D01*
X117840714Y-136918098D01*
X117764524Y-136880003D01*
X117535952Y-136880003D01*
X117459762Y-136918098D01*
X117421667Y-136956193D01*
X117383571Y-137032384D01*
X117383571Y-137184765D01*
X117421667Y-137260955D01*
X117878810Y-137946670D02*
X117916905Y-137870480D01*
X117916905Y-137718099D01*
X117878810Y-137641908D01*
X117802619Y-137603813D01*
X117497857Y-137603813D01*
X117421667Y-137641908D01*
X117383571Y-137718099D01*
X117383571Y-137870480D01*
X117421667Y-137946670D01*
X117497857Y-137984765D01*
X117574048Y-137984765D01*
X117650238Y-137603813D01*
X117840714Y-138327622D02*
X117878810Y-138365717D01*
X117916905Y-138327622D01*
X117878810Y-138289527D01*
X117840714Y-138327622D01*
X117916905Y-138327622D01*
X107041905Y-127285952D02*
X107041905Y-126828809D01*
X107041905Y-127057380D02*
X106241905Y-127057380D01*
X106356190Y-126981190D01*
X106432381Y-126904999D01*
X106470476Y-126828809D01*
X106241905Y-127781190D02*
X106241905Y-127857381D01*
X106280000Y-127933571D01*
X106318095Y-127971666D01*
X106394286Y-128009762D01*
X106546667Y-128047857D01*
X106737143Y-128047857D01*
X106889524Y-128009762D01*
X106965714Y-127971666D01*
X107003810Y-127933571D01*
X107041905Y-127857381D01*
X107041905Y-127781190D01*
X107003810Y-127705000D01*
X106965714Y-127666904D01*
X106889524Y-127628809D01*
X106737143Y-127590714D01*
X106546667Y-127590714D01*
X106394286Y-127628809D01*
X106318095Y-127666904D01*
X106280000Y-127705000D01*
X106241905Y-127781190D01*
X106241905Y-128543095D02*
X106241905Y-128619286D01*
X106280000Y-128695476D01*
X106318095Y-128733571D01*
X106394286Y-128771667D01*
X106546667Y-128809762D01*
X106737143Y-128809762D01*
X106889524Y-128771667D01*
X106965714Y-128733571D01*
X107003810Y-128695476D01*
X107041905Y-128619286D01*
X107041905Y-128543095D01*
X107003810Y-128466905D01*
X106965714Y-128428809D01*
X106889524Y-128390714D01*
X106737143Y-128352619D01*
X106546667Y-128352619D01*
X106394286Y-128390714D01*
X106318095Y-128428809D01*
X106280000Y-128466905D01*
X106241905Y-128543095D01*
X106241905Y-129305000D02*
X106241905Y-129381191D01*
X106280000Y-129457381D01*
X106318095Y-129495476D01*
X106394286Y-129533572D01*
X106546667Y-129571667D01*
X106737143Y-129571667D01*
X106889524Y-129533572D01*
X106965714Y-129495476D01*
X107003810Y-129457381D01*
X107041905Y-129381191D01*
X107041905Y-129305000D01*
X107003810Y-129228810D01*
X106965714Y-129190714D01*
X106889524Y-129152619D01*
X106737143Y-129114524D01*
X106546667Y-129114524D01*
X106394286Y-129152619D01*
X106318095Y-129190714D01*
X106280000Y-129228810D01*
X106241905Y-129305000D01*
X106508571Y-129914524D02*
X107308571Y-129914524D01*
X106546667Y-129914524D02*
X106508571Y-129990715D01*
X106508571Y-130143096D01*
X106546667Y-130219286D01*
X106584762Y-130257381D01*
X106660952Y-130295477D01*
X106889524Y-130295477D01*
X106965714Y-130257381D01*
X107003810Y-130219286D01*
X107041905Y-130143096D01*
X107041905Y-129990715D01*
X107003810Y-129914524D01*
X106622857Y-130905001D02*
X106622857Y-130638334D01*
X107041905Y-130638334D02*
X106241905Y-130638334D01*
X106241905Y-131019287D01*
X103333571Y-127590714D02*
X103866905Y-127590714D01*
X103028810Y-127400238D02*
X103600238Y-127209762D01*
X103600238Y-127705000D01*
X103066905Y-127933572D02*
X103066905Y-128466905D01*
X103866905Y-128124048D01*
X103066905Y-128924048D02*
X103066905Y-129000239D01*
X103105000Y-129076429D01*
X103143095Y-129114524D01*
X103219286Y-129152620D01*
X103371667Y-129190715D01*
X103562143Y-129190715D01*
X103714524Y-129152620D01*
X103790714Y-129114524D01*
X103828810Y-129076429D01*
X103866905Y-129000239D01*
X103866905Y-128924048D01*
X103828810Y-128847858D01*
X103790714Y-128809762D01*
X103714524Y-128771667D01*
X103562143Y-128733572D01*
X103371667Y-128733572D01*
X103219286Y-128771667D01*
X103143095Y-128809762D01*
X103105000Y-128847858D01*
X103066905Y-128924048D01*
X103333571Y-129533572D02*
X104133571Y-129533572D01*
X103371667Y-129533572D02*
X103333571Y-129609763D01*
X103333571Y-129762144D01*
X103371667Y-129838334D01*
X103409762Y-129876429D01*
X103485952Y-129914525D01*
X103714524Y-129914525D01*
X103790714Y-129876429D01*
X103828810Y-129838334D01*
X103866905Y-129762144D01*
X103866905Y-129609763D01*
X103828810Y-129533572D01*
X103447857Y-130524049D02*
X103447857Y-130257382D01*
X103866905Y-130257382D02*
X103066905Y-130257382D01*
X103066905Y-130638335D01*
X105771905Y-114712857D02*
X105771905Y-114255714D01*
X105771905Y-114484285D02*
X104971905Y-114484285D01*
X105086190Y-114408095D01*
X105162381Y-114331904D01*
X105200476Y-114255714D01*
X104971905Y-115208095D02*
X104971905Y-115284286D01*
X105010000Y-115360476D01*
X105048095Y-115398571D01*
X105124286Y-115436667D01*
X105276667Y-115474762D01*
X105467143Y-115474762D01*
X105619524Y-115436667D01*
X105695714Y-115398571D01*
X105733810Y-115360476D01*
X105771905Y-115284286D01*
X105771905Y-115208095D01*
X105733810Y-115131905D01*
X105695714Y-115093809D01*
X105619524Y-115055714D01*
X105467143Y-115017619D01*
X105276667Y-115017619D01*
X105124286Y-115055714D01*
X105048095Y-115093809D01*
X105010000Y-115131905D01*
X104971905Y-115208095D01*
X105238571Y-116160476D02*
X105771905Y-116160476D01*
X105238571Y-115817619D02*
X105657619Y-115817619D01*
X105733810Y-115855714D01*
X105771905Y-115931905D01*
X105771905Y-116046191D01*
X105733810Y-116122381D01*
X105695714Y-116160476D01*
X105352857Y-116808096D02*
X105352857Y-116541429D01*
X105771905Y-116541429D02*
X104971905Y-116541429D01*
X104971905Y-116922382D01*
X105048095Y-119113571D02*
X105010000Y-119151666D01*
X104971905Y-119227857D01*
X104971905Y-119418333D01*
X105010000Y-119494523D01*
X105048095Y-119532619D01*
X105124286Y-119570714D01*
X105200476Y-119570714D01*
X105314762Y-119532619D01*
X105771905Y-119075476D01*
X105771905Y-119570714D01*
X105771905Y-119913571D02*
X104971905Y-119913571D01*
X105771905Y-120370714D01*
X104971905Y-120370714D01*
X105048095Y-120713571D02*
X105010000Y-120751666D01*
X104971905Y-120827857D01*
X104971905Y-121018333D01*
X105010000Y-121094523D01*
X105048095Y-121132619D01*
X105124286Y-121170714D01*
X105200476Y-121170714D01*
X105314762Y-121132619D01*
X105771905Y-120675476D01*
X105771905Y-121170714D01*
X105048095Y-121475476D02*
X105010000Y-121513571D01*
X104971905Y-121589762D01*
X104971905Y-121780238D01*
X105010000Y-121856428D01*
X105048095Y-121894524D01*
X105124286Y-121932619D01*
X105200476Y-121932619D01*
X105314762Y-121894524D01*
X105771905Y-121437381D01*
X105771905Y-121932619D01*
X105048095Y-122237381D02*
X105010000Y-122275476D01*
X104971905Y-122351667D01*
X104971905Y-122542143D01*
X105010000Y-122618333D01*
X105048095Y-122656429D01*
X105124286Y-122694524D01*
X105200476Y-122694524D01*
X105314762Y-122656429D01*
X105771905Y-122199286D01*
X105771905Y-122694524D01*
X105048095Y-122999286D02*
X105010000Y-123037381D01*
X104971905Y-123113572D01*
X104971905Y-123304048D01*
X105010000Y-123380238D01*
X105048095Y-123418334D01*
X105124286Y-123456429D01*
X105200476Y-123456429D01*
X105314762Y-123418334D01*
X105771905Y-122961191D01*
X105771905Y-123456429D01*
M02*
