G04 #@! TF.FileFunction,Copper,L1,Top,Signal*
%FSLAX46Y46*%
G04 Gerber Fmt 4.6, Leading zero omitted, Abs format (unit mm)*
G04 Created by KiCad (PCBNEW 4.0.7) date 07/01/19 14:30:08*
%MOMM*%
%LPD*%
G01*
G04 APERTURE LIST*
%ADD10C,0.100000*%
%ADD11R,1.600000X1.600000*%
%ADD12O,1.600000X1.600000*%
%ADD13C,1.600000*%
%ADD14R,1.200000X1.200000*%
%ADD15C,1.200000*%
%ADD16R,1.700000X1.700000*%
%ADD17O,1.700000X1.700000*%
%ADD18C,1.000000*%
%ADD19R,1.000000X1.000000*%
%ADD20C,0.600000*%
%ADD21C,0.250000*%
G04 APERTURE END LIST*
D10*
D11*
X127000000Y-104140000D03*
D12*
X142240000Y-121920000D03*
X127000000Y-106680000D03*
X142240000Y-119380000D03*
X127000000Y-109220000D03*
X142240000Y-116840000D03*
X127000000Y-111760000D03*
X142240000Y-114300000D03*
X127000000Y-114300000D03*
X142240000Y-111760000D03*
X127000000Y-116840000D03*
X142240000Y-109220000D03*
X127000000Y-119380000D03*
X142240000Y-106680000D03*
X127000000Y-121920000D03*
X142240000Y-104140000D03*
X127000000Y-124460000D03*
X127000000Y-127000000D03*
X127000000Y-129540000D03*
X127000000Y-132080000D03*
X127000000Y-134620000D03*
X127000000Y-137160000D03*
X142240000Y-137160000D03*
X142240000Y-134620000D03*
X142240000Y-132080000D03*
X142240000Y-129540000D03*
X142240000Y-127000000D03*
X142240000Y-124460000D03*
D13*
X102235000Y-104140000D03*
X102235000Y-109140000D03*
X105410000Y-104140000D03*
X105410000Y-109140000D03*
X105410000Y-126365000D03*
X105410000Y-131365000D03*
X102235000Y-126365000D03*
X102235000Y-131365000D03*
D14*
X103505000Y-116205000D03*
D15*
X103505000Y-114205000D03*
D16*
X140335000Y-100330000D03*
D17*
X142875000Y-100330000D03*
X145415000Y-100330000D03*
D16*
X118745000Y-100330000D03*
D17*
X121285000Y-100330000D03*
X123825000Y-100330000D03*
D16*
X102235000Y-100330000D03*
D17*
X104775000Y-100330000D03*
D18*
X102235000Y-121285000D03*
X103505000Y-120015000D03*
D19*
X103505000Y-122555000D03*
D13*
X120015000Y-113030000D03*
D12*
X120015000Y-123190000D03*
D13*
X116205000Y-113030000D03*
D12*
X116205000Y-123190000D03*
D13*
X112395000Y-113030000D03*
D12*
X112395000Y-123190000D03*
D11*
X130175000Y-104140000D03*
D12*
X145415000Y-137160000D03*
X130175000Y-106680000D03*
X145415000Y-134620000D03*
X130175000Y-109220000D03*
X145415000Y-132080000D03*
X130175000Y-111760000D03*
X145415000Y-129540000D03*
X130175000Y-114300000D03*
X145415000Y-127000000D03*
X130175000Y-116840000D03*
X145415000Y-124460000D03*
X130175000Y-119380000D03*
X145415000Y-121920000D03*
X130175000Y-121920000D03*
X145415000Y-119380000D03*
X130175000Y-124460000D03*
X145415000Y-116840000D03*
X130175000Y-127000000D03*
X145415000Y-114300000D03*
X130175000Y-129540000D03*
X145415000Y-111760000D03*
X130175000Y-132080000D03*
X145415000Y-109220000D03*
X130175000Y-134620000D03*
X145415000Y-106680000D03*
X130175000Y-137160000D03*
X145415000Y-104140000D03*
D11*
X108585000Y-104140000D03*
D12*
X123825000Y-137160000D03*
X108585000Y-106680000D03*
X123825000Y-134620000D03*
X108585000Y-109220000D03*
X123825000Y-132080000D03*
X108585000Y-111760000D03*
X123825000Y-129540000D03*
X108585000Y-114300000D03*
X123825000Y-127000000D03*
X108585000Y-116840000D03*
X123825000Y-124460000D03*
X108585000Y-119380000D03*
X123825000Y-121920000D03*
X108585000Y-121920000D03*
X123825000Y-119380000D03*
X108585000Y-124460000D03*
X123825000Y-116840000D03*
X108585000Y-127000000D03*
X123825000Y-114300000D03*
X108585000Y-129540000D03*
X123825000Y-111760000D03*
X108585000Y-132080000D03*
X123825000Y-109220000D03*
X108585000Y-134620000D03*
X123825000Y-106680000D03*
X108585000Y-137160000D03*
X123825000Y-104140000D03*
D16*
X108585000Y-100330000D03*
D17*
X111125000Y-100330000D03*
D20*
X121920000Y-107950000D03*
X121285000Y-105410000D03*
X125095000Y-99060000D03*
X114300000Y-115570000D03*
X112395000Y-118110000D03*
X100965000Y-118745000D03*
D21*
X130175000Y-104140000D02*
X127000000Y-104140000D01*
X123825000Y-121920000D02*
X124460000Y-121920000D01*
X124460000Y-121920000D02*
X125730000Y-120650000D01*
X140970000Y-120650000D02*
X142240000Y-121920000D01*
X125730000Y-120650000D02*
X140970000Y-120650000D01*
X142240000Y-121920000D02*
X145415000Y-121920000D01*
X127000000Y-106680000D02*
X130175000Y-106680000D01*
X126365000Y-118110000D02*
X125730000Y-118110000D01*
X126365000Y-118110000D02*
X140970000Y-118110000D01*
X142240000Y-119380000D02*
X140970000Y-118110000D01*
X125730000Y-118110000D02*
X124460000Y-119380000D01*
X124460000Y-119380000D02*
X123825000Y-119380000D01*
X142240000Y-119380000D02*
X145415000Y-119380000D01*
X127000000Y-109220000D02*
X130175000Y-109220000D01*
X142240000Y-116840000D02*
X145415000Y-116840000D01*
X127000000Y-111760000D02*
X130175000Y-111760000D01*
X142240000Y-114300000D02*
X145415000Y-114300000D01*
X109855000Y-115570000D02*
X110490000Y-116205000D01*
X121920000Y-116205000D02*
X122555000Y-115570000D01*
X110490000Y-116205000D02*
X121920000Y-116205000D01*
X124460000Y-115570000D02*
X122555000Y-115570000D01*
X127000000Y-114300000D02*
X125730000Y-114300000D01*
X125730000Y-114300000D02*
X124460000Y-115570000D01*
X109855000Y-115570000D02*
X108585000Y-114300000D01*
X127000000Y-114300000D02*
X130175000Y-114300000D01*
X111125000Y-100330000D02*
X114300000Y-100330000D01*
X121920000Y-110490000D02*
X123190000Y-111760000D01*
X121920000Y-107950000D02*
X121920000Y-110490000D01*
X116205000Y-105410000D02*
X121285000Y-105410000D01*
X114935000Y-104140000D02*
X116205000Y-105410000D01*
X114935000Y-100965000D02*
X114935000Y-104140000D01*
X114300000Y-100330000D02*
X114935000Y-100965000D01*
X123190000Y-111760000D02*
X123825000Y-111760000D01*
X123825000Y-111760000D02*
X125095000Y-110490000D01*
X140970000Y-110490000D02*
X142240000Y-111760000D01*
X125095000Y-110490000D02*
X140970000Y-110490000D01*
X142240000Y-111760000D02*
X145415000Y-111760000D01*
X108585000Y-116840000D02*
X121920000Y-116840000D01*
X108585000Y-116840000D02*
X109220000Y-116840000D01*
X121920000Y-116840000D02*
X123190000Y-118110000D01*
X127000000Y-116840000D02*
X125730000Y-116840000D01*
X125730000Y-116840000D02*
X124460000Y-118110000D01*
X124460000Y-118110000D02*
X123190000Y-118110000D01*
X127000000Y-116840000D02*
X130175000Y-116840000D01*
X140335000Y-100330000D02*
X127000000Y-100330000D01*
X127000000Y-100330000D02*
X125095000Y-99060000D01*
X110490000Y-117475000D02*
X121285000Y-117475000D01*
X108585000Y-119380000D02*
X110490000Y-117475000D01*
X121920000Y-120015000D02*
X122555000Y-120650000D01*
X121920000Y-118110000D02*
X121920000Y-120015000D01*
X121285000Y-117475000D02*
X121920000Y-118110000D01*
X127000000Y-119380000D02*
X125730000Y-119380000D01*
X125730000Y-119380000D02*
X124460000Y-120650000D01*
X124460000Y-120650000D02*
X122555000Y-120650000D01*
X127000000Y-119380000D02*
X130175000Y-119380000D01*
X142240000Y-106680000D02*
X145415000Y-106680000D01*
X127000000Y-121920000D02*
X130175000Y-121920000D01*
X123825000Y-104140000D02*
X116840000Y-104140000D01*
X116205000Y-99060000D02*
X116840000Y-98425000D01*
X116205000Y-103505000D02*
X116205000Y-99060000D01*
X116840000Y-104140000D02*
X116205000Y-103505000D01*
X111760000Y-98425000D02*
X100330000Y-98425000D01*
X124460000Y-98425000D02*
X146050000Y-98425000D01*
X146050000Y-98425000D02*
X146685000Y-99060000D01*
X146685000Y-99060000D02*
X146685000Y-103505000D01*
X146050000Y-104140000D02*
X146685000Y-103505000D01*
X111760000Y-98425000D02*
X116840000Y-98425000D01*
X116840000Y-98425000D02*
X124460000Y-98425000D01*
X100330000Y-120015000D02*
X103505000Y-120015000D01*
X99695000Y-119380000D02*
X100330000Y-120015000D01*
X99695000Y-99060000D02*
X99695000Y-119380000D01*
X100330000Y-98425000D02*
X99695000Y-99060000D01*
X146050000Y-104140000D02*
X145415000Y-104140000D01*
X142240000Y-104140000D02*
X145415000Y-104140000D01*
X124460000Y-125730000D02*
X109855000Y-125730000D01*
X125730000Y-124460000D02*
X124460000Y-125730000D01*
X127000000Y-124460000D02*
X125730000Y-124460000D01*
X109855000Y-125730000D02*
X108585000Y-124460000D01*
X127000000Y-124460000D02*
X130175000Y-124460000D01*
X127000000Y-127000000D02*
X125730000Y-127000000D01*
X109855000Y-128270000D02*
X108585000Y-127000000D01*
X124460000Y-128270000D02*
X109855000Y-128270000D01*
X125730000Y-127000000D02*
X124460000Y-128270000D01*
X127000000Y-127000000D02*
X130175000Y-127000000D01*
X124460000Y-130810000D02*
X109855000Y-130810000D01*
X125730000Y-129540000D02*
X124460000Y-130810000D01*
X127000000Y-129540000D02*
X125730000Y-129540000D01*
X109855000Y-130810000D02*
X108585000Y-129540000D01*
X127000000Y-129540000D02*
X130175000Y-129540000D01*
X127000000Y-132080000D02*
X125730000Y-132080000D01*
X109855000Y-133350000D02*
X108585000Y-132080000D01*
X124460000Y-133350000D02*
X109855000Y-133350000D01*
X125730000Y-132080000D02*
X124460000Y-133350000D01*
X127000000Y-132080000D02*
X130175000Y-132080000D01*
X124460000Y-135890000D02*
X109855000Y-135890000D01*
X125730000Y-134620000D02*
X124460000Y-135890000D01*
X127000000Y-134620000D02*
X125730000Y-134620000D01*
X109855000Y-135890000D02*
X108585000Y-134620000D01*
X127000000Y-134620000D02*
X130175000Y-134620000D01*
X123825000Y-137160000D02*
X124460000Y-137160000D01*
X124460000Y-137160000D02*
X125730000Y-135890000D01*
X125730000Y-135890000D02*
X140970000Y-135890000D01*
X140970000Y-135890000D02*
X142240000Y-137160000D01*
X142240000Y-137160000D02*
X145415000Y-137160000D01*
X123825000Y-134620000D02*
X124460000Y-134620000D01*
X124460000Y-134620000D02*
X125730000Y-133350000D01*
X125730000Y-133350000D02*
X140970000Y-133350000D01*
X140970000Y-133350000D02*
X142240000Y-134620000D01*
X142240000Y-134620000D02*
X145415000Y-134620000D01*
X124460000Y-132080000D02*
X125730000Y-130810000D01*
X125730000Y-130810000D02*
X140970000Y-130810000D01*
X140970000Y-130810000D02*
X142240000Y-132080000D01*
X124460000Y-132080000D02*
X123825000Y-132080000D01*
X142240000Y-132080000D02*
X145415000Y-132080000D01*
X126365000Y-128270000D02*
X125730000Y-128270000D01*
X126365000Y-128270000D02*
X140970000Y-128270000D01*
X142240000Y-129540000D02*
X140970000Y-128270000D01*
X125730000Y-128270000D02*
X124460000Y-129540000D01*
X124460000Y-129540000D02*
X123825000Y-129540000D01*
X142240000Y-129540000D02*
X145415000Y-129540000D01*
X125730000Y-125730000D02*
X124460000Y-127000000D01*
X124460000Y-127000000D02*
X123825000Y-127000000D01*
X140970000Y-125730000D02*
X142240000Y-127000000D01*
X125730000Y-125730000D02*
X140970000Y-125730000D01*
X142240000Y-127000000D02*
X145415000Y-127000000D01*
X124460000Y-124460000D02*
X125730000Y-123190000D01*
X125730000Y-123190000D02*
X140970000Y-123190000D01*
X140970000Y-123190000D02*
X142240000Y-124460000D01*
X124460000Y-124460000D02*
X123825000Y-124460000D01*
X142240000Y-124460000D02*
X145415000Y-124460000D01*
X104140000Y-110490000D02*
X104648000Y-110998000D01*
X106807000Y-110998000D02*
X107315000Y-110490000D01*
X104648000Y-110998000D02*
X106807000Y-110998000D01*
X103886000Y-110236000D02*
X103886000Y-108204000D01*
X104140000Y-110490000D02*
X103886000Y-110236000D01*
X103886000Y-108204000D02*
X103886000Y-105791000D01*
X108585000Y-109220000D02*
X107315000Y-110490000D01*
X103886000Y-105791000D02*
X102235000Y-104140000D01*
X102235000Y-109140000D02*
X102235000Y-111125000D01*
X102870000Y-111760000D02*
X104140000Y-111760000D01*
X102235000Y-111125000D02*
X102870000Y-111760000D01*
X102235000Y-109140000D02*
X102235000Y-109855000D01*
X104140000Y-111760000D02*
X108585000Y-111760000D01*
X108585000Y-111760000D02*
X109220000Y-111760000D01*
X105410000Y-104140000D02*
X108585000Y-104140000D01*
X105410000Y-109140000D02*
X105410000Y-107950000D01*
X106680000Y-106680000D02*
X108585000Y-106680000D01*
X105410000Y-107950000D02*
X106680000Y-106680000D01*
X102235000Y-131365000D02*
X102235000Y-129540000D01*
X102235000Y-129540000D02*
X105410000Y-126365000D01*
X105410000Y-126365000D02*
X105410000Y-123190000D01*
X109855000Y-123190000D02*
X111760000Y-121285000D01*
X114935000Y-121285000D02*
X116205000Y-122555000D01*
X111760000Y-121285000D02*
X114935000Y-121285000D01*
X116205000Y-122555000D02*
X116205000Y-123190000D01*
X105410000Y-123190000D02*
X104775000Y-122555000D01*
X109855000Y-123190000D02*
X105410000Y-123190000D01*
X102235000Y-121285000D02*
X104140000Y-121285000D01*
X104775000Y-121920000D02*
X104775000Y-122555000D01*
X104140000Y-121285000D02*
X104775000Y-121920000D01*
X102235000Y-100330000D02*
X101346000Y-100330000D01*
X101251000Y-114205000D02*
X103505000Y-114205000D01*
X100584000Y-113538000D02*
X101251000Y-114205000D01*
X100584000Y-101092000D02*
X100584000Y-113538000D01*
X101346000Y-100330000D02*
X100584000Y-101092000D01*
X121285000Y-100330000D02*
X121285000Y-100965000D01*
X121285000Y-100965000D02*
X121920000Y-101600000D01*
X121920000Y-101600000D02*
X125095000Y-101600000D01*
X125095000Y-101600000D02*
X125730000Y-102235000D01*
X123825000Y-109220000D02*
X125095000Y-109220000D01*
X125730000Y-108585000D02*
X125730000Y-102235000D01*
X125095000Y-109220000D02*
X125730000Y-108585000D01*
X114300000Y-115570000D02*
X114300000Y-110490000D01*
X114300000Y-110490000D02*
X113665000Y-109855000D01*
X113665000Y-109855000D02*
X111125000Y-109855000D01*
X111125000Y-109855000D02*
X110490000Y-109220000D01*
X110490000Y-109220000D02*
X110490000Y-102235000D01*
X108585000Y-100330000D02*
X110490000Y-102235000D01*
X112395000Y-118110000D02*
X108585000Y-121920000D01*
X109220000Y-121920000D02*
X108585000Y-121920000D01*
X116205000Y-113030000D02*
X116205000Y-107950000D01*
X117475000Y-106680000D02*
X121285000Y-106680000D01*
X116205000Y-107950000D02*
X117475000Y-106680000D01*
X116205000Y-113030000D02*
X120015000Y-113030000D01*
X121285000Y-106680000D02*
X123825000Y-106680000D01*
X102235000Y-126365000D02*
X103505000Y-125095000D01*
X103505000Y-125095000D02*
X103505000Y-122555000D01*
X103505000Y-116205000D02*
X102235000Y-116205000D01*
X100965000Y-117475000D02*
X100965000Y-118745000D01*
X102235000Y-116205000D02*
X100965000Y-117475000D01*
X112395000Y-113030000D02*
X106680000Y-113030000D01*
X106680000Y-113030000D02*
X103505000Y-116205000D01*
M02*
